<?xml version="1.0" encoding="UTF-8"?>
<svg version="1.1" xmlns="http://www.w3.org/2000/svg" width="512" height="512">
<path d="M0 0 C6.27 0 12.54 0 19 0 C19.33 9.9 19.66 19.8 20 30 C23.3 28.02 26.6 26.04 30 24 C33.744652 24.69495851 35.7584649 25.31524484 39 27 C40.10773773 27.51046875 40.10773773 27.51046875 41.237854 28.03125 C43.6059251 29.13753188 45.93103749 30.30945811 48.2578125 31.5 C49.11555771 31.93233948 49.97330292 32.36467896 50.85704041 32.81011963 C52.67806763 33.72860888 54.49776039 34.64974808 56.31619263 35.57336426 C61.03939079 37.97234803 65.77193382 40.35275799 70.50390625 42.734375 C71.88711311 43.43140533 71.88711311 43.43140533 73.29826355 44.14251709 C80.17791051 47.60347087 87.09510614 50.96872537 94.0625 54.25 C103.20115175 58.55912523 112.10844957 63.20013649 121 68 C121 78.89 121 89.78 121 101 C107.77482158 95.75462021 94.63839212 90.35526647 81.5625 84.75 C65.09616178 77.69661206 48.55461061 70.8501837 32 64 C31.67 211.18 31.34 358.36 31 510 C0.31 510 -30.38 510 -62 510 C-62.57350153 456.01925338 -63.05343352 402.04138614 -63.32769857 348.05846346 C-63.36021582 341.68130425 -63.39386831 335.30415151 -63.42822266 328.92700195 C-63.43504273 327.65745934 -63.4418628 326.38791672 -63.44888954 325.07990312 C-63.56193819 304.53975929 -63.76688341 284.00151293 -64.0059727 263.46249373 C-64.24936364 242.37762874 -64.39357895 221.29375538 -64.44630086 200.20754331 C-64.4819296 187.20133139 -64.59430425 174.20048223 -64.80582814 161.19592213 C-64.94358355 152.27042074 -64.98473751 143.34767886 -64.95103581 134.42119236 C-64.93441993 129.27326182 -64.95930265 124.13467276 -65.09934235 118.98841858 C-65.89815939 88.12661338 -65.89815939 88.12661338 -59.47034216 80.70734668 C-52.82686318 74.2078651 -44.46972889 70.55624002 -36 67 C-34.11157791 66.07848716 -32.23128298 65.14001202 -30.36202431 64.18022251 C-29.59289227 63.78584824 -28.82376024 63.39147397 -28.03132117 62.98514897 C-27.30813362 62.61235449 -26.58494607 62.23956002 -25.83984375 61.85546875 C-25.04511418 61.45251428 -24.2503846 61.0495598 -23.43157232 60.63439459 C-9.20142146 53.69046291 -9.20142146 53.69046291 -0.03796387 41.44958496 C3.25748686 27.95581825 1.56247166 13.61582451 0 0 Z M11.6796875 80.921875 C10.04 81.84226562 10.04 81.84226562 8.3671875 82.78125 C7.20310999 83.43747337 6.0390476 84.09372358 4.875 84.75 C3.74578125 85.38421875 2.6165625 86.0184375 1.453125 86.671875 C-4.04317197 89.76112857 -9.52563363 92.87179064 -15 96 C-15 111.18 -15 126.36 -15 142 C-9.72 139.36 -4.44 136.72 1 134 C2.73048584 133.29439941 4.46097168 132.58879883 6.24389648 131.86181641 C10.77125994 129.93622648 14.91451822 127.9434238 18 124 C20.68444797 116.4864542 19.59618893 108.18071891 19.0625 100.375 C18.97713383 98.20472315 18.89958303 96.03412396 18.83007812 93.86328125 C18.64359636 88.56843815 18.36012161 83.28572247 18 78 C15.83480941 78 13.47967973 79.90950657 11.6796875 80.921875 Z M-33.39135742 104.24389648 C-35.29204982 105.30112493 -37.19567444 106.35292173 -39.09960938 107.40429688 C-40.31268337 108.07779482 -41.52557969 108.75161292 -42.73828125 109.42578125 C-43.84212158 110.03848877 -44.94596191 110.65119629 -46.08325195 111.2824707 C-49.7202964 113.40403909 -49.7202964 113.40403909 -53 116 C-53.57565103 118.10511559 -53.57565103 118.10511559 -53.45410156 120.47143555 C-53.45379944 121.37214279 -53.45349731 122.27285004 -53.45318604 123.20085144 C-53.43254089 124.16968765 -53.41189575 125.13852386 -53.390625 126.13671875 C-53.38496521 127.13129593 -53.37930542 128.12587311 -53.37347412 129.15058899 C-53.3510672 132.33004711 -53.30086205 135.508382 -53.25 138.6875 C-53.22994062 140.84178061 -53.21168887 142.99607887 -53.1953125 145.15039062 C-53.15118852 150.43397758 -53.08423379 155.71690855 -53 161 C-49.11243937 159.5329706 -45.5156217 157.74847217 -41.859375 155.77734375 C-40.70695312 155.15666016 -39.55453125 154.53597656 -38.3671875 153.89648438 C-37.77389648 153.57510498 -37.18060547 153.25372559 -36.56933594 152.92260742 C-34.74336504 151.9339074 -32.91483868 150.95006391 -31.0859375 149.96679688 C-25.73230601 147.42922529 -25.73230601 147.42922529 -21 144 C-20.90704185 142.55710213 -20.88253487 141.10970215 -20.88647461 139.66381836 C-20.88655014 138.7429393 -20.88662567 137.82206024 -20.88670349 136.87327576 C-20.89186478 135.87224319 -20.89702606 134.87121063 -20.90234375 133.83984375 C-20.90446617 132.31043907 -20.90446617 132.31043907 -20.90663147 130.75013733 C-20.91224903 127.47922893 -20.9248045 124.20838787 -20.9375 120.9375 C-20.94251274 118.72591244 -20.94707604 116.51432382 -20.95117188 114.30273438 C-20.96222416 108.86846643 -20.97897937 103.43423803 -21 98 C-24.82845585 98 -29.95076403 102.32852826 -33.39135742 104.24389648 Z M11.171875 153.17578125 C10.5858551 153.5016069 9.99983521 153.82743256 9.39605713 154.16313171 C8.1513422 154.85572534 6.90719776 155.54934507 5.66357422 156.24389648 C3.77305894 157.29962312 1.88084213 158.35224259 -0.01171875 159.40429688 C-3.3460379 161.26101566 -6.67977575 163.11812943 -10 165 C-11.41913696 165.53270508 -11.41913696 165.53270508 -12.86694336 166.07617188 C-15.47235461 168.42602201 -15.37096918 169.15351488 -15.56762695 172.56323242 C-15.56683494 174.49415885 -15.53856178 176.42519691 -15.48828125 178.35546875 C-15.48120651 179.37224197 -15.47413177 180.3890152 -15.46684265 181.43659973 C-15.43882918 184.68764484 -15.37607585 187.93697453 -15.3125 191.1875 C-15.28742621 193.38994911 -15.26461145 195.59242518 -15.24414062 197.79492188 C-15.1889801 203.19720096 -15.10528492 208.59847795 -15 214 C-3.91371562 208.14618023 7.03751807 202.09026774 18 196 C18 180.82 18 165.64 18 150 C15.72868072 150 13.04943724 152.13012564 11.171875 153.17578125 Z M-28.234375 172.95703125 C-29.28367187 173.57513672 -30.33296875 174.19324219 -31.4140625 174.83007812 C-32.51492187 175.48427734 -33.61578125 176.13847656 -34.75 176.8125 C-36.91043672 178.09157091 -39.07186551 179.36896789 -41.234375 180.64453125 C-42.19569336 181.21534424 -43.15701172 181.78615723 -44.14746094 182.37426758 C-47.04007198 184.02283801 -50.02208353 185.51104176 -53 187 C-53 202.18 -53 217.36 -53 233 C-42.19670832 227.59835416 -31.52727918 221.92159454 -21 216 C-21 200.82 -21 185.64 -21 170 C-23.96221927 170 -25.69724838 171.45240151 -28.234375 172.95703125 Z M11.5625 224.4140625 C10.66660156 224.92839844 9.77070313 225.44273437 8.84765625 225.97265625 C7.90792969 226.51792969 6.96820313 227.06320313 6 227.625 C5.09121094 228.14707031 4.18242187 228.66914063 3.24609375 229.20703125 C1.4023841 230.26919684 -0.42668359 231.35715768 -2.24072266 232.46923828 C-5 234 -5 234 -7.89599609 234.93310547 C-11.29451163 236.21184442 -12.82050909 237.05616197 -15 240 C-16.71873896 247.42132812 -15.93043419 255.33019931 -15.625 262.875 C-15.5748214 265.01552199 -15.52919713 267.15615592 -15.48828125 269.296875 C-15.37825856 274.53369612 -15.21113922 279.76633277 -15 285 C-10.81801646 283.71073865 -7.10811291 282.12720043 -3.26953125 280.03125 C-2.21958984 279.46019531 -1.16964844 278.88914062 -0.08789062 278.30078125 C0.99298828 277.70652344 2.07386719 277.11226563 3.1875 276.5 C4.27998047 275.90574219 5.37246094 275.31148438 6.49804688 274.69921875 C12.35017848 271.51860683 12.35017848 271.51860683 18 268 C18.43685816 265.94581105 18.43685816 265.94581105 18.34057617 263.55029297 C18.34034958 262.62948944 18.34012299 261.70868591 18.33988953 260.75997925 C18.32440567 259.76410797 18.30892181 258.76823669 18.29296875 257.7421875 C18.28872391 256.72399933 18.28447906 255.70581116 18.28010559 254.6567688 C18.26327579 251.39591327 18.22561546 248.13566959 18.1875 244.875 C18.17245874 242.66797766 18.15876937 240.46094566 18.14648438 238.25390625 C18.1133583 232.83572777 18.06311653 227.41790758 18 222 C15.29188214 222 13.90790346 223.06170287 11.5625 224.4140625 Z M-28.48828125 244.95703125 C-29.58720703 245.57513672 -30.68613281 246.19324219 -31.81835938 246.83007812 C-32.98309237 247.49085112 -34.14780574 248.15165873 -35.3125 248.8125 C-37.02469727 249.77639648 -37.02469727 249.77639648 -38.77148438 250.75976562 C-41.85290851 252.49768163 -44.9321911 254.2381596 -48 256 C-48.93634277 256.350625 -49.87268555 256.70125 -50.83740234 257.0625 C-53.47206419 259.42292859 -53.3720344 260.12957258 -53.56762695 263.56323242 C-53.56683494 265.49415885 -53.53856178 267.42519691 -53.48828125 269.35546875 C-53.48120651 270.37224197 -53.47413177 271.3890152 -53.46684265 272.43659973 C-53.43882918 275.68764484 -53.37607585 278.93697453 -53.3125 282.1875 C-53.28742621 284.38994911 -53.26461145 286.59242518 -53.24414062 288.79492188 C-53.1889801 294.19720096 -53.10528492 299.59847795 -53 305 C-42.09517489 299.7053743 -31.62008047 293.90004471 -21 288 C-21 272.82 -21 257.64 -21 242 C-24.00401268 242 -25.88452305 243.48702973 -28.48828125 244.95703125 Z M10.546875 296.921875 C9.45246094 297.53546875 8.35804688 298.1490625 7.23046875 298.78125 C6.08191406 299.4309375 4.93335938 300.080625 3.75 300.75 C2.61691406 301.38421875 1.48382813 302.0184375 0.31640625 302.671875 C-4.36056125 305.30336155 -4.36056125 305.30336155 -9 308 C-10.10134277 308.52013672 -11.20268555 309.04027344 -12.33740234 309.57617188 C-15.33055984 312.30091675 -15.42272253 312.75324204 -15.68115234 316.58496094 C-15.68020464 318.46836616 -15.64642955 320.35194125 -15.5859375 322.234375 C-15.57744781 323.22753723 -15.56895813 324.22069946 -15.56021118 325.24395752 C-15.52664388 328.41374541 -15.45135609 331.58098215 -15.375 334.75 C-15.34490481 336.89970283 -15.31752823 339.04944556 -15.29296875 341.19921875 C-15.22684253 346.46701514 -15.12646213 351.73332534 -15 357 C-10.94154751 355.47766483 -7.20100548 353.57862396 -3.38671875 351.5234375 C-2.26225342 350.91935059 -1.13778809 350.31526367 0.02075195 349.69287109 C1.43702881 348.92797363 2.85330566 348.16307617 4.3125 347.375 C8.829375 344.94125 13.34625 342.5075 18 340 C18 324.82 18 309.64 18 294 C15.00922817 294 13.14322681 295.4632598 10.546875 296.921875 Z M-27.1015625 315.921875 C-28.14957031 316.53546875 -29.19757813 317.1490625 -30.27734375 317.78125 C-31.38207031 318.4309375 -32.48679687 319.080625 -33.625 319.75 C-35.78369978 321.01588831 -37.94255019 322.2815198 -40.1015625 323.546875 C-41.54523193 324.39523926 -41.54523193 324.39523926 -43.01806641 325.26074219 C-46.33342182 327.19447331 -49.66760889 329.09577651 -53 331 C-53 345.85 -53 360.7 -53 376 C-48.43461452 374.47820484 -44.88285084 373.00551283 -40.7265625 370.7421875 C-39.68580566 370.17870605 -38.64504883 369.61522461 -37.57275391 369.03466797 C-36.26999512 368.32197754 -34.96723633 367.60928711 -33.625 366.875 C-29.45875 364.60625 -25.2925 362.3375 -21 360 C-21 344.49 -21 328.98 -21 313 C-23.12198293 313 -25.35599213 314.89707715 -27.1015625 315.921875 Z M11.93359375 367.88671875 C10.36834961 368.8003418 10.36834961 368.8003418 8.77148438 369.73242188 C7.67126953 370.37759766 6.57105469 371.02277344 5.4375 371.6875 C4.36435547 372.31333984 3.29121094 372.93917969 2.18554688 373.58398438 C-0.88316782 375.37860932 -3.94968785 377.17423938 -7 379 C-8.05276627 379.48071709 -8.05276627 379.48071709 -9.12680054 379.97114563 C-11.43529676 381.13112806 -13.17143932 382.16875818 -15 384 C-16.09682434 387.45680296 -15.93619162 390.7352126 -15.78125 394.33203125 C-15.76993042 395.32377853 -15.75861084 396.31552582 -15.74694824 397.33732605 C-15.70224583 400.49770231 -15.60189543 403.65350123 -15.5 406.8125 C-15.45986504 408.95761665 -15.42336429 411.1028046 -15.390625 413.24804688 C-15.30253333 418.50025343 -15.16876412 423.74979981 -15 429 C-12.68604649 427.85703777 -10.3739017 426.7106047 -8.0625 425.5625 C-7.13147461 425.10327148 -7.13147461 425.10327148 -6.18164062 424.63476562 C1.96740155 420.57992821 9.94675505 416.26348262 18 412 C18 396.49 18 380.98 18 365 C15.88600083 365 13.6764538 366.86833706 11.93359375 367.88671875 Z M-28.1171875 388.4296875 C-28.73014679 388.78008087 -29.34310608 389.13047424 -29.97463989 389.4914856 C-31.27485456 390.23533049 -32.57446916 390.98022508 -33.87353516 391.72607422 C-35.85830315 392.8654153 -37.84499466 394.00133976 -39.83203125 395.13671875 C-41.09386593 395.85917255 -42.35558834 396.58182249 -43.6171875 397.3046875 C-44.21103241 397.6443454 -44.80487732 397.9840033 -45.41671753 398.33395386 C-48.00352729 399.82059443 -50.51594456 401.34396304 -53 403 C-53.43661626 405.01337365 -53.43661626 405.01337365 -53.34057617 407.35791016 C-53.34034958 408.25869293 -53.34012299 409.15947571 -53.33988953 410.08755493 C-53.32440567 411.06155243 -53.30892181 412.03554993 -53.29296875 413.0390625 C-53.28872391 414.03505463 -53.28447906 415.03104675 -53.28010559 416.05722046 C-53.2632768 419.24675225 -53.22561676 422.43565833 -53.1875 425.625 C-53.1724586 427.78384506 -53.15876925 429.9427 -53.14648438 432.1015625 C-53.11335967 437.40125612 -53.06311896 442.70058337 -53 448 C-48.85801844 446.72964508 -45.2477905 445.17821408 -41.48828125 443.03125 C-40.48345703 442.46019531 -39.47863281 441.88914062 -38.44335938 441.30078125 C-37.41017578 440.70652344 -36.37699219 440.11226563 -35.3125 439.5 C-34.26771484 438.90574219 -33.22292969 438.31148438 -32.14648438 437.69921875 C-26.49421693 434.47861018 -26.49421693 434.47861018 -21 431 C-20.56314184 428.94581105 -20.56314184 428.94581105 -20.65942383 426.55029297 C-20.65965042 425.62948944 -20.65987701 424.70868591 -20.66011047 423.75997925 C-20.67559433 422.76410797 -20.69107819 421.76823669 -20.70703125 420.7421875 C-20.71127609 419.72399933 -20.71552094 418.70581116 -20.71989441 417.6567688 C-20.73672421 414.39591327 -20.77438454 411.13566959 -20.8125 407.875 C-20.82754126 405.66797766 -20.84123063 403.46094566 -20.85351562 401.25390625 C-20.8866417 395.83572777 -20.93688347 390.41790758 -21 385 C-23.39469078 385 -26.03920238 387.23513219 -28.1171875 388.4296875 Z " fill="#F0F0F0" transform="translate(156,0)"/>
<path d="M0 0 C1.77462882 0.77961621 3.53521251 1.5918919 5.28125 2.43359375 C6.77579712 3.15180298 6.77579712 3.15180298 8.30053711 3.88452148 C9.35635986 4.39700439 10.41218262 4.9094873 11.5 5.4375 C12.59771729 5.96738525 13.69543457 6.49727051 14.82641602 7.04321289 C25.60218142 12.26029146 36.30727257 17.61535683 47 23 C50.3 24.65 53.6 26.3 57 28 C57 126.67 57 225.34 57 327 C50.73 327 44.46 327 38 327 C37.67 233.28 37.34 139.56 37 43 C23.8 37.39 10.6 31.78 -3 26 C-3.33 125.33 -3.66 224.66 -4 327 C-25.12 327 -46.24 327 -68 327 C-68.5960998 290.6165139 -69.094262 254.23765978 -69.3787639 217.85068209 C-69.41252991 213.5477443 -69.4474769 209.24481687 -69.4831543 204.94189453 C-69.49023668 204.08531906 -69.49731906 203.2287436 -69.50461606 202.3462113 C-69.62186666 188.50545285 -69.83460241 174.66774557 -70.08312549 160.82879283 C-70.33630623 146.61108071 -70.48572578 132.3949575 -70.54038936 118.17508399 C-70.57400774 110.19368506 -70.6550007 102.21868396 -70.85471153 94.2395668 C-72.11578869 42.38468101 -72.11578869 42.38468101 -63.77644747 32.79464638 C-58.09289516 27.38665061 -51.55897536 24.4409808 -44.13718987 22.07048416 C-39.88582598 20.61981719 -36.57021368 18.38827478 -32.9921875 15.734375 C-30.95400176 14.40490489 -28.91500414 13.07667819 -26.875 11.75 C-24.78881072 10.39101143 -22.70286813 9.03164409 -20.6171875 7.671875 C-19.66166992 7.05634766 -18.70615234 6.44082031 -17.72167969 5.80664062 C-15.93977033 4.62381597 -14.1878919 3.3941366 -12.47363281 2.11523438 C-11.70116211 1.54611328 -10.92869141 0.97699219 -10.1328125 0.390625 C-9.4742627 -0.11952148 -8.81571289 -0.62966797 -8.13720703 -1.15527344 C-4.91639624 -2.4282921 -3.11717251 -1.32074763 0 0 Z M-20.09765625 38.15234375 C-20.89880859 38.59900391 -21.69996094 39.04566406 -22.52539062 39.50585938 C-23.36263672 39.97830078 -24.19988281 40.45074219 -25.0625 40.9375 C-25.90361328 41.40607422 -26.74472656 41.87464844 -27.61132812 42.35742188 C-31.53647438 44.35803205 -31.53647438 44.35803205 -35 47 C-35.08783542 49.21855264 -35.10694609 51.43988496 -35.09765625 53.66015625 C-35.0962413 54.32462265 -35.09482635 54.98908905 -35.09336853 55.6736908 C-35.08775518 57.80333899 -35.07520054 59.93288339 -35.0625 62.0625 C-35.05748671 63.50325369 -35.05292351 64.94400903 -35.04882812 66.38476562 C-35.03778145 69.92321102 -35.02050792 73.46159539 -35 77 C-31.99778149 75.83358443 -29.1064455 74.60743188 -26.265625 73.08984375 C-25.60949219 72.73986328 -24.95335937 72.38988281 -24.27734375 72.02929688 C-23.60832031 71.66900391 -22.93929687 71.30871094 -22.25 70.9375 C-21.56550781 70.57333984 -20.88101563 70.20917969 -20.17578125 69.83398438 C-16.88199582 68.21218654 -16.88199582 68.21218654 -14 66 C-13.91216458 63.78144736 -13.89305391 61.56011504 -13.90234375 59.33984375 C-13.9037587 58.67537735 -13.90517365 58.01091095 -13.90663147 57.3263092 C-13.91224482 55.19666101 -13.92479946 53.06711661 -13.9375 50.9375 C-13.94251329 49.49674631 -13.94707649 48.05599097 -13.95117188 46.61523438 C-13.96221855 43.07678898 -13.97949208 39.53840461 -14 36 C-16.58410551 36 -17.84427395 36.89132629 -20.09765625 38.15234375 Z M-59.16748047 57.49951172 C-65.08372544 65.57227764 -62.09073023 80.66917826 -61 90 C-57.62341741 88.92815864 -54.45496562 87.86970624 -51.38671875 86.08984375 C-50.77892578 85.73986328 -50.17113281 85.38988281 -49.54492188 85.02929688 C-48.93197266 84.66900391 -48.31902344 84.30871094 -47.6875 83.9375 C-47.05521484 83.57333984 -46.42292969 83.20917969 -45.77148438 82.83398438 C-42.70697351 81.16251708 -42.70697351 81.16251708 -40 79 C-39.91216458 76.78144736 -39.89305391 74.56011504 -39.90234375 72.33984375 C-39.9037587 71.67537735 -39.90517365 71.01091095 -39.90663147 70.3263092 C-39.91224482 68.19666101 -39.92479946 66.06711661 -39.9375 63.9375 C-39.94251329 62.49674631 -39.94707649 61.05599097 -39.95117188 59.61523438 C-39.96221855 56.07678898 -39.97949208 52.53840461 -40 49 C-46.70913763 49 -54.16722138 53.33000681 -59.16748047 57.49951172 Z M-19.47265625 86.40625 C-20.28226807 86.85291016 -21.09187988 87.29957031 -21.92602539 87.75976562 C-22.96106201 88.33404297 -23.99609863 88.90832031 -25.0625 89.5 C-28.341875 91.315 -31.62125 93.13 -35 95 C-35 105.23 -35 115.46 -35 126 C-32.463125 124.741875 -29.92625 123.48375 -27.3125 122.1875 C-26.52270752 121.79715576 -25.73291504 121.40681152 -24.91918945 121.00463867 C-23.96338989 120.52861206 -23.96338989 120.52861206 -22.98828125 120.04296875 C-22.34415283 119.72352295 -21.70002441 119.40407715 -21.03637695 119.07495117 C-20.36437256 118.72021729 -19.69236816 118.3654834 -19 118 C-18.1028125 117.60876953 -17.205625 117.21753906 -16.28125 116.81445312 C-13.66304703 115.14250418 -13.66304703 115.14250418 -13.43237305 111.8137207 C-13.45855713 110.53070068 -13.48474121 109.24768066 -13.51171875 107.92578125 C-13.51879349 107.2419487 -13.52586823 106.55811615 -13.53315735 105.8535614 C-13.56111996 103.67208841 -13.62384936 101.49319506 -13.6875 99.3125 C-13.71258103 97.8327194 -13.73539456 96.35289851 -13.75585938 94.87304688 C-13.81094865 91.24786137 -13.89722892 87.62418247 -14 84 C-15.96643231 84 -17.80472473 85.48311809 -19.47265625 86.40625 Z M-45.21875 99.37109375 C-46.06824219 99.86287109 -46.91773438 100.35464844 -47.79296875 100.86132812 C-49.13294922 101.6415332 -49.13294922 101.6415332 -50.5 102.4375 C-51.39332031 102.95376953 -52.28664063 103.47003906 -53.20703125 104.00195312 C-57.33625553 106.18289775 -57.33625553 106.18289775 -61 109 C-61.08783542 111.21855264 -61.10694609 113.43988496 -61.09765625 115.66015625 C-61.0962413 116.32462265 -61.09482635 116.98908905 -61.09336853 117.6736908 C-61.08775518 119.80333899 -61.07520054 121.93288339 -61.0625 124.0625 C-61.05748671 125.50325369 -61.05292351 126.94400903 -61.04882812 128.38476562 C-61.03778145 131.92321102 -61.02050792 135.46159539 -61 139 C-58.43623236 137.73167312 -55.87397788 136.46043635 -53.3125 135.1875 C-52.59126953 134.83107422 -51.87003906 134.47464844 -51.12695312 134.10742188 C-50.42119141 133.75615234 -49.71542969 133.40488281 -48.98828125 133.04296875 C-48.34415283 132.72352295 -47.70002441 132.40407715 -47.03637695 132.07495117 C-46.36437256 131.72021729 -45.69236816 131.3654834 -45 131 C-44.1028125 130.60876953 -43.205625 130.21753906 -42.28125 129.81445312 C-39.66304703 128.14250418 -39.66304703 128.14250418 -39.43237305 124.8137207 C-39.45855713 123.53070068 -39.48474121 122.24768066 -39.51171875 120.92578125 C-39.51879349 120.2419487 -39.52586823 119.55811615 -39.53315735 118.8535614 C-39.56111996 116.67208841 -39.62384936 114.49319506 -39.6875 112.3125 C-39.71258103 110.8327194 -39.73539456 109.35289851 -39.75585938 107.87304688 C-39.81094865 104.24786137 -39.89722892 100.62418247 -40 97 C-41.91311417 97 -43.61187315 98.44007564 -45.21875 99.37109375 Z M-33.16748047 141.49951172 C-39.08372544 149.57227764 -36.09073023 164.66917826 -35 174 C-31.62341741 172.92815864 -28.45496562 171.86970624 -25.38671875 170.08984375 C-24.77892578 169.73986328 -24.17113281 169.38988281 -23.54492188 169.02929688 C-22.93197266 168.66900391 -22.31902344 168.30871094 -21.6875 167.9375 C-21.05521484 167.57333984 -20.42292969 167.20917969 -19.77148438 166.83398438 C-16.70697351 165.16251708 -16.70697351 165.16251708 -14 163 C-13.91216458 160.78144736 -13.89305391 158.56011504 -13.90234375 156.33984375 C-13.9037587 155.67537735 -13.90517365 155.01091095 -13.90663147 154.3263092 C-13.91224482 152.19666101 -13.92479946 150.06711661 -13.9375 147.9375 C-13.94251329 146.49674631 -13.94707649 145.05599097 -13.95117188 143.61523438 C-13.96221855 140.07678898 -13.97949208 136.53840461 -14 133 C-20.70913763 133 -28.16722138 137.33000681 -33.16748047 141.49951172 Z M-59.16748047 154.45214844 C-65.25596153 162.91729477 -62.10181458 178.23890417 -61 188 C-59.98679687 187.45730469 -58.97359375 186.91460937 -57.9296875 186.35546875 C-56.57814756 185.63277031 -55.22658379 184.91011643 -53.875 184.1875 C-53.20984375 183.83107422 -52.5446875 183.47464844 -51.859375 183.10742188 C-51.20195312 182.75615234 -50.54453125 182.40488281 -49.8671875 182.04296875 C-49.27019043 181.72352295 -48.67319336 181.40407715 -48.05810547 181.07495117 C-45.39014314 179.68147096 -42.69218277 178.34609139 -40 177 C-40 166.77 -40 156.54 -40 146 C-46.73251832 146 -54.16585337 150.24058327 -59.16748047 154.45214844 Z M-19.21875 183.37109375 C-20.06824219 183.86287109 -20.91773438 184.35464844 -21.79296875 184.86132812 C-23.13294922 185.6415332 -23.13294922 185.6415332 -24.5 186.4375 C-25.39332031 186.95376953 -26.28664063 187.47003906 -27.20703125 188.00195312 C-31.33625553 190.18289775 -31.33625553 190.18289775 -35 193 C-35.08783542 195.21855264 -35.10694609 197.43988496 -35.09765625 199.66015625 C-35.0962413 200.32462265 -35.09482635 200.98908905 -35.09336853 201.6736908 C-35.08775518 203.80333899 -35.07520054 205.93288339 -35.0625 208.0625 C-35.05748671 209.50325369 -35.05292351 210.94400903 -35.04882812 212.38476562 C-35.03778145 215.92321102 -35.02050792 219.46159539 -35 223 C-32.43623236 221.73167312 -29.87397788 220.46043635 -27.3125 219.1875 C-26.59126953 218.83107422 -25.87003906 218.47464844 -25.12695312 218.10742188 C-24.42119141 217.75615234 -23.71542969 217.40488281 -22.98828125 217.04296875 C-22.34415283 216.72352295 -21.70002441 216.40407715 -21.03637695 216.07495117 C-20.36437256 215.72021729 -19.69236816 215.3654834 -19 215 C-18.1028125 214.60876953 -17.205625 214.21753906 -16.28125 213.81445312 C-13.66304703 212.14250418 -13.66304703 212.14250418 -13.43237305 208.8137207 C-13.45855713 207.53070068 -13.48474121 206.24768066 -13.51171875 204.92578125 C-13.51879349 204.2419487 -13.52586823 203.55811615 -13.53315735 202.8535614 C-13.56111996 200.67208841 -13.62384936 198.49319506 -13.6875 196.3125 C-13.71258103 194.8327194 -13.73539456 193.35289851 -13.75585938 191.87304688 C-13.81094865 188.24786137 -13.89722892 184.62418247 -14 181 C-15.91311417 181 -17.61187315 182.44007564 -19.21875 183.37109375 Z M-46.09765625 197.15234375 C-46.89880859 197.59900391 -47.69996094 198.04566406 -48.52539062 198.50585938 C-49.36263672 198.97830078 -50.19988281 199.45074219 -51.0625 199.9375 C-51.90361328 200.40607422 -52.74472656 200.87464844 -53.61132812 201.35742188 C-57.53647438 203.35803205 -57.53647438 203.35803205 -61 206 C-61.08783542 208.21855264 -61.10694609 210.43988496 -61.09765625 212.66015625 C-61.0962413 213.32462265 -61.09482635 213.98908905 -61.09336853 214.6736908 C-61.08775518 216.80333899 -61.07520054 218.93288339 -61.0625 221.0625 C-61.05748671 222.50325369 -61.05292351 223.94400903 -61.04882812 225.38476562 C-61.03778145 228.92321102 -61.02050792 232.46159539 -61 236 C-57.86763854 234.79652627 -54.92754074 233.49534839 -52.01171875 231.8359375 C-51.37451904 231.4754834 -50.73731934 231.1150293 -50.08081055 230.74365234 C-49.29101807 230.29199707 -48.50122559 229.8403418 -47.6875 229.375 C-45.150625 227.93125 -42.61375 226.4875 -40 225 C-40 215.1 -40 205.2 -40 195 C-42.58410551 195 -43.84427395 195.89132629 -46.09765625 197.15234375 Z M-33.16748047 238.49951172 C-39.08372544 246.57227764 -36.09073023 261.66917826 -35 271 C-31.55630673 269.90330958 -28.30958078 268.78240358 -25.1328125 267.0546875 C-24.53871582 266.73483887 -23.94461914 266.41499023 -23.33251953 266.08544922 C-22.60403809 265.68600098 -21.87555664 265.28655273 -21.125 264.875 C-18.77375 263.59625 -16.4225 262.3175 -14 261 C-14 250.77 -14 240.54 -14 230 C-20.70913763 230 -28.16722138 234.33000681 -33.16748047 238.49951172 Z M-45.47265625 245.40625 C-46.28226807 245.85291016 -47.09187988 246.29957031 -47.92602539 246.75976562 C-48.96106201 247.33404297 -49.99609863 247.90832031 -51.0625 248.5 C-54.341875 250.315 -57.62125 252.13 -61 254 C-61 264.23 -61 274.46 -61 285 C-58.834375 283.9275 -56.66875 282.855 -54.4375 281.75 C-53.77032959 281.4209668 -53.10315918 281.09193359 -52.41577148 280.75292969 C-51.58928101 280.34155762 -51.58928101 280.34155762 -50.74609375 279.921875 C-49.92129517 279.51340332 -49.92129517 279.51340332 -49.07983398 279.09667969 C-46.00967528 277.47780976 -43.01351852 275.72201058 -40 274 C-40 263.77 -40 253.54 -40 243 C-41.96643231 243 -43.80472473 244.48311809 -45.47265625 245.40625 Z " fill="#F0F0F0" transform="translate(361,185)"/>
<path d="M0 0 C4.73613498 0.68704447 8.79511743 2.48004216 13.14453125 4.37890625 C13.82753296 4.67277222 14.51053467 4.96663818 15.2142334 5.26940918 C17.74927875 6.36180757 20.2806791 7.46264907 22.8125 8.5625 C28.484375 11.016875 34.15625 13.47125 40 16 C40 28.54 40 41.08 40 54 C34.42166312 52.14055437 29.03142397 50.28919894 23.59375 48.1171875 C22.61758728 47.72758347 22.61758728 47.72758347 21.6217041 47.33010864 C20.26682619 46.78856118 18.91245707 46.24573911 17.55859375 45.70166016 C15.47810415 44.86620738 13.39542249 44.03639716 11.3125 43.20703125 C9.98945029 42.67741558 8.66652871 42.14747967 7.34375 41.6171875 C6.14943359 41.13878418 4.95511719 40.66038086 3.72460938 40.16748047 C1 39 1 39 0 38 C-0.08861992 35.1883662 -0.11522355 32.40141745 -0.09765625 29.58984375 C-0.0962413 28.74780899 -0.09482635 27.90577423 -0.09336853 27.03822327 C-0.08775263 24.33794665 -0.07519748 21.63775172 -0.0625 18.9375 C-0.05748705 17.11132932 -0.05292379 15.28515734 -0.04882812 13.45898438 C-0.03777804 8.97262458 -0.02050279 4.48632616 0 0 Z " fill="#F0F0F0" transform="translate(236,164)"/>
<path d="M0 0 C14.625 5.625 14.625 5.625 20.17578125 8.11328125 C21.23966064 8.58805908 22.30354004 9.06283691 23.3996582 9.55200195 C24.690896 10.13296631 25.98213379 10.71393066 27.3125 11.3125 C33.5928125 14.1278125 33.5928125 14.1278125 40 17 C40 29.54 40 42.08 40 55 C35.441875 53.288125 30.88375 51.57625 26.1875 49.8125 C24.77364014 49.28374268 23.35978027 48.75498535 21.90307617 48.21020508 C20.75299072 47.77603271 19.60290527 47.34186035 18.41796875 46.89453125 C16.68196411 46.24254761 16.68196411 46.24254761 14.91088867 45.57739258 C9.87286318 43.54538792 4.94545592 41.24793451 0 39 C0 26.13 0 13.26 0 0 Z " fill="#F0F0F0" transform="translate(197,93)"/>
<path d="M0 0 C5.68468354 1.89489451 10.95985482 3.73645008 16.40625 6.1015625 C17.38241272 6.5244606 17.38241272 6.5244606 18.3782959 6.9559021 C19.73345696 7.5439774 21.08782579 8.13388162 22.44140625 8.72558594 C24.5213898 9.63434535 26.60422762 10.53630914 28.6875 11.4375 C38.85883923 15.85883923 38.85883923 15.85883923 40 17 C40.08858646 19.73894085 40.11523479 22.4525327 40.09765625 25.19140625 C40.0962413 26.01124496 40.09482635 26.83108368 40.09336853 27.67576599 C40.08775289 30.30471382 40.07519779 32.93357773 40.0625 35.5625 C40.05748701 37.34049357 40.05292376 39.11848846 40.04882812 40.89648438 C40.03777839 45.26435545 40.02050331 49.63216348 40 54 C35.32391204 53.28955573 31.20760509 51.61119325 26.85546875 49.83984375 C26.17246704 49.56563599 25.48946533 49.29142822 24.7857666 49.00891113 C22.25110319 47.98983997 19.71947675 46.96322822 17.1875 45.9375 C11.515625 43.648125 5.84375 41.35875 0 39 C0 26.13 0 13.26 0 0 Z " fill="#F0F0F0" transform="translate(224,216)"/>
<path d="M0 0 C9.26246013 3.45011423 18.29847131 7.25683388 27.3125 11.3125 C33.5928125 14.1278125 33.5928125 14.1278125 40 17 C40 29.21 40 41.42 40 54 C35.00062289 53.16677048 30.86598867 51.95448806 26.23046875 50.09375 C25.50886063 49.80898804 24.7872525 49.52422607 24.04377747 49.23083496 C22.52913622 48.63177828 21.01561521 48.02988217 19.50317383 47.42529297 C17.17982574 46.49693353 14.8529658 45.57785929 12.52539062 44.66015625 C11.05187038 44.07605777 9.57855554 43.49144078 8.10546875 42.90625 C7.40761765 42.63018921 6.70976654 42.35412842 5.99076843 42.06970215 C1.11637902 40.11637902 1.11637902 40.11637902 0 39 C-0.08865208 36.1156618 -0.11521296 33.25537842 -0.09765625 30.37109375 C-0.0962413 29.50686295 -0.09482635 28.64263214 -0.09336853 27.75221252 C-0.08775239 24.98060708 -0.07519719 22.2090812 -0.0625 19.4375 C-0.05748708 17.5631522 -0.05292381 15.68880315 -0.04882812 13.81445312 C-0.03777772 9.20960456 -0.0205023 4.60481579 0 0 Z " fill="#F0F0F0" transform="translate(226,380)"/>
<path d="M0 0 C5.68468354 1.89489451 10.95985482 3.73645008 16.40625 6.1015625 C17.38241272 6.5244606 17.38241272 6.5244606 18.3782959 6.9559021 C19.73345696 7.5439774 21.08782579 8.13388162 22.44140625 8.72558594 C24.5213898 9.63434535 26.60422762 10.53630914 28.6875 11.4375 C38.85883923 15.85883923 38.85883923 15.85883923 40 17 C40.08858646 19.73894085 40.11523479 22.4525327 40.09765625 25.19140625 C40.0962413 26.01124496 40.09482635 26.83108368 40.09336853 27.67576599 C40.08775289 30.30471382 40.07519779 32.93357773 40.0625 35.5625 C40.05748701 37.34049357 40.05292376 39.11848846 40.04882812 40.89648438 C40.03777839 45.26435545 40.02050331 49.63216348 40 54 C31.1783777 51.63748804 22.8221869 48.2435065 14.375 44.8125 C9.63125 42.894375 4.8875 40.97625 0 39 C0 26.13 0 13.26 0 0 Z " fill="#F0F0F0" transform="translate(197,288)"/>
</svg>
