<?xml version="1.0" encoding="UTF-8"?>
<svg version="1.1" xmlns="http://www.w3.org/2000/svg" width="360" height="360">
<path d="M0 0 C118.8 0 237.6 0 360 0 C360 118.8 360 237.6 360 360 C241.2 360 122.4 360 0 360 C0 241.2 0 122.4 0 0 Z " fill="#F9F9F9" transform="translate(0,0)"/>
<path d="M0 0 C3.82601624 4.23594655 5.86362904 8.78407302 8 14 C8.99 13.67 9.98 13.34 11 13 C15 19.75 15 19.75 15 22 C15.598125 22.061875 16.19625 22.12375 16.8125 22.1875 C19.94788342 23.35207098 20.53163251 25.05083317 22 28 C22.36914349 30.56741047 22.36914349 30.56741047 22.36076355 33.34675598 C22.36694954 34.93471985 22.36694954 34.93471985 22.3732605 36.55476379 C22.36247467 37.70562973 22.35168884 38.85649567 22.34057617 40.04223633 C22.34101425 41.26216278 22.34145233 42.48208923 22.34190369 43.73898315 C22.34017417 47.07557711 22.32514946 50.41161133 22.30418181 53.74810624 C22.28540297 57.23811579 22.28366363 60.72813314 22.28010559 64.21818542 C22.27078865 70.82316848 22.24617971 77.42800222 22.21605712 84.03291959 C22.18250212 91.55403216 22.16602435 99.07515193 22.15097082 106.59632075 C22.11962976 122.06430025 22.06687619 137.53213085 22 153 C22.99 153 23.98 153 25 153 C24.9800145 151.45357819 24.9800145 151.45357819 24.95962524 149.87591553 C24.83804466 140.16464837 24.7480761 130.45353541 24.68912697 120.74168015 C24.65780144 115.74852555 24.61530643 110.75598484 24.54736328 105.76318359 C24.48221412 100.94559949 24.44630316 96.12860612 24.43073654 91.31061554 C24.41964216 89.47170966 24.39797694 87.63283647 24.36561966 85.79418182 C24.32211328 83.21982242 24.31606314 80.64790951 24.31884766 78.07324219 C24.297276 77.31151199 24.27570435 76.5497818 24.253479 75.76496887 C24.2784729 73.63201904 24.2784729 73.63201904 25 70 C29.06831278 66.54154799 31.85292671 65.40544836 37.03515625 65.6640625 C40.38335748 66.23651838 43.57342532 67.57342532 46 70 C46.09443335 72.30053835 46.11742128 74.60402173 46.11352539 76.90649414 C46.11367142 77.62840439 46.11381744 78.35031464 46.1139679 79.09410095 C46.11326869 81.49114947 46.10547595 83.88812123 46.09765625 86.28515625 C46.0957921 87.94282489 46.09436818 89.60049407 46.09336853 91.25816345 C46.08954312 95.62954214 46.07971265 100.00088781 46.06866455 104.37225342 C46.05845092 108.82954461 46.05387101 113.28684111 46.04882812 117.74414062 C46.0380904 126.49610893 46.02101371 135.24805036 46 144 C46.99 144 47.98 144 49 144 C49 143.34 49 142.68 49 142 C49.99 142 50.98 142 52 142 C52 141.34 52 140.68 52 140 C54.64 140 57.28 140 60 140 C61.4783226 142.95664519 61.06032783 145.74229737 61 149 C62.65 149 64.3 149 66 149 C66 151.31 66 153.62 66 156 C67.98 156 69.96 156 72 156 C71.98223511 155.18504562 71.96447021 154.37009125 71.94616699 153.53044128 C71.7851231 145.80803059 71.66369971 138.08644651 71.58550262 130.3627882 C71.54394624 126.39289767 71.48768993 122.42440715 71.39648438 118.45532227 C71.30883986 114.61669211 71.26157927 110.77939845 71.24098206 106.93984413 C71.22632646 105.48340142 71.19770815 104.02702272 71.15415955 102.57115746 C70.8908971 93.39576945 72.08892292 87.24946908 77.88684082 79.85322571 C80 78 80 78 84 78 C83.91363281 77.09765625 83.82726562 76.1953125 83.73828125 75.265625 C84 72 84 72 85.79296875 69.734375 C86.97826172 68.75210938 86.97826172 68.75210938 88.1875 67.75 C88.96480469 67.08484375 89.74210938 66.4196875 90.54296875 65.734375 C95.35560989 62.33721655 97.92349624 62 104 62 C104 87.41 104 112.82 104 139 C106.97 139 109.94 139 113 139 C113 138.01 113 137.02 113 136 C118.28 136 123.56 136 129 136 C129 138.64 129 141.28 129 144 C129.66 144 130.32 144 131 144 C131.33 146.64 131.66 149.28 132 152 C133.32 152 134.64 152 136 152 C136.33 151.01 136.66 150.02 137 149 C139.31 149 141.62 149 144 149 C144.33 149.99 144.66 150.98 145 152 C145.66 151.67 146.32 151.34 147 151 C148.6674606 150.91573906 150.33825187 150.89274857 152.0078125 150.90234375 C152.99394531 150.90556641 153.98007812 150.90878906 154.99609375 150.91210938 C156.02863281 150.92048828 157.06117188 150.92886719 158.125 150.9375 C159.68541016 150.94426758 159.68541016 150.94426758 161.27734375 150.95117188 C163.85161962 150.96298048 166.42578146 150.97944925 169 151 C169 148.03 169 145.06 169 142 C172.3 141.67 175.6 141.34 179 141 C179 141.99 179 142.98 179 144 C178.01 144 177.02 144 176 144 C176 144.99 176 145.98 176 147 C176.99 147 177.98 147 179 147 C179 147.66 179 148.32 179 149 C178.01 149 177.02 149 176 149 C176 149.99 176 150.98 176 152 C176.99 152 177.98 152 179 152 C178.67 152.66 178.34 153.32 178 154 C177.8509288 156.0745356 177.8509288 156.0745356 179 158 C176.36 158 173.72 158 171 158 C171.33 156.35 171.66 154.7 172 153 C171.34 153 170.68 153 170 153 C169.67 153.99 169.34 154.98 169 156 C168.67 155.34 168.34 154.68 168 154 C166.35 154 164.7 154 163 154 C163 155.65 163 157.3 163 159 C165.31 158.67 167.62 158.34 170 158 C170.66 158.99 171.32 159.98 172 161 C175.58357241 161.25015873 175.58357241 161.25015873 179 161 C179 161.66 179 162.32 179 163 C178.34 163 177.68 163 177 163 C177 163.99 177 164.98 177 166 C177.66 166.33 178.32 166.66 179 167 C173.25 168 173.25 168 171 168 C170.67 168.99 170.34 169.98 170 171 C172.97 171 175.94 171 179 171 C179 171.66 179 172.32 179 173 C180.98 173 182.96 173 185 173 C185 179.93 185 186.86 185 194 C184.01 194 183.02 194 182 194 C182.01047363 195.14364014 182.02094727 196.28728027 182.03173828 197.46557617 C182.06834506 201.76892887 182.09104621 206.07226825 182.10986328 210.37573242 C182.11982926 212.22699306 182.13340693 214.07823835 182.15087891 215.92944336 C182.40976593 244.09482846 182.40976593 244.09482846 178.08447266 249.30932617 C176.14216778 251.0534606 174.14296661 252.51477561 172 254 C169.30140739 256.42873335 168.20814505 258.56143331 167 262 C166.67 262 166.34 262 166 262 C166 253.09 166 244.18 166 235 C165.01 235 164.02 235 163 235 C163 230.05 163 225.1 163 220 C161.453125 220.020625 159.90625 220.04125 158.3125 220.0625 C154.70652086 220.11057972 151.52343392 219.74598711 148 219 C148.00785522 220.0372522 148.00785522 220.0372522 148.01586914 221.09545898 C148.036575 224.20946352 148.04963963 227.32345361 148.0625 230.4375 C148.07087891 231.52611328 148.07925781 232.61472656 148.08789062 233.73632812 C148.09272461 235.28803711 148.09272461 235.28803711 148.09765625 236.87109375 C148.10551147 238.30859985 148.10551147 238.30859985 148.11352539 239.77514648 C148 242 148 242 147 243 C144.66702567 243.04092937 142.33294775 243.04241723 140 243 C140 242.34 140 241.68 140 241 C139.34 241 138.68 241 138 241 C138 239.35 138 237.7 138 236 C137.34 236 136.68 236 136 236 C135.93941406 235.16855469 135.87882812 234.33710938 135.81640625 233.48046875 C135.73261719 232.39378906 135.64882813 231.30710937 135.5625 230.1875 C135.48128906 229.10855469 135.40007812 228.02960938 135.31640625 226.91796875 C135.09787539 223.94010095 135.09787539 223.94010095 134 221 C132.68 221 131.36 221 130 221 C130 214.73 130 208.46 130 202 C127.36 202 124.72 202 122 202 C122 205.3 122 208.6 122 212 C120.02 212 118.04 212 116 212 C116.00222061 212.68158676 116.00444122 213.36317352 116.00672913 214.06541443 C116.02892778 221.18740309 116.04396727 228.30938185 116.05493164 235.43139648 C116.05937963 238.08603876 116.06676042 240.74062652 116.07543945 243.39526367 C116.08762874 247.22054727 116.09325664 251.04579421 116.09765625 254.87109375 C116.10281754 256.04957382 116.10797882 257.22805389 116.11329651 258.44224548 C116.11371946 264.71657467 115.83492321 270.77996653 115 277 C111.97910522 277.02716089 108.95845871 277.04691657 105.9375 277.0625 C105.08994141 277.07087891 104.24238281 277.07925781 103.36914062 277.08789062 C98.4638278 277.10683006 93.83555245 276.83326345 89 276 C88.04531742 269.62542652 87.8797676 263.43938347 87.9375 257 C87.94201172 256.03449219 87.94652344 255.06898438 87.95117188 254.07421875 C87.96284583 251.71607911 87.97921979 249.35807398 88 247 C86.68 247 85.36 247 84 247 C84 248.98 84 250.96 84 253 C81.89590361 253.02701408 79.79170822 253.04640223 77.6875 253.0625 C76.51574219 253.07410156 75.34398437 253.08570313 74.13671875 253.09765625 C71 253 71 253 68 252 C68 243.42 68 234.84 68 226 C67.01 226 66.02 226 65 226 C65 232.27 65 238.54 65 245 C63.35 245 61.7 245 60 245 C60.01740234 245.87398438 60.01740234 245.87398438 60.03515625 246.765625 C60.10993846 253.56012255 59.65055041 260.23892255 59 267 C57.2709226 267.02725341 55.54171824 267.04650987 53.8125 267.0625 C52.84957031 267.07410156 51.88664063 267.08570313 50.89453125 267.09765625 C48 267 48 267 43 266 C42.67 259.4 42.34 252.8 42 246 C40.68 246 39.36 246 38 246 C38 245.34 38 244.68 38 244 C36.68 243.67 35.36 243.34 34 243 C34 239.7 34 236.4 34 233 C31.03 233 28.06 233 25 233 C25 231.68 25 230.36 25 229 C24.34 229 23.68 229 23 229 C22.67 224.38 22.34 219.76 22 215 C20.02 215.99 20.02 215.99 18 217 C15.75 216.125 15.75 216.125 14 215 C14 215.99 14 216.98 14 218 C13.34 218 12.68 218 12 218 C12.03480469 218.68707031 12.06960937 219.37414062 12.10546875 220.08203125 C12.13253906 220.98308594 12.15960938 221.88414062 12.1875 222.8125 C12.22230469 223.70582031 12.25710937 224.59914062 12.29296875 225.51953125 C12 228 12 228 10.77734375 229.75390625 C8.64040648 231.25211062 6.93639869 231.6661175 4.375 232.125 C1.40059351 232.49097593 1.40059351 232.49097593 -1 234 C-1.15858842 236.14386657 -1.25129298 238.29266838 -1.31640625 240.44140625 C-1.35830078 241.74658203 -1.40019531 243.05175781 -1.44335938 244.39648438 C-1.48317608 245.7851533 -1.52288825 247.17382522 -1.5625 248.5625 C-1.60567989 249.95509183 -1.649294 251.34767028 -1.69335938 252.74023438 C-1.79985876 256.16004801 -1.90186923 259.57993763 -2 263 C-3.32 263 -4.64 263 -6 263 C-6 265.31 -6 267.62 -6 270 C-4.35 270 -2.7 270 -1 270 C-0.67 270.66 -0.34 271.32 0 272 C-4.74384783 272.93089636 -9.36742608 273.18305754 -14.1875 273.1875 C-14.89841797 273.19974609 -15.60933594 273.21199219 -16.34179688 273.22460938 C-20.11373295 273.23525454 -21.78364543 273.14423638 -25 271 C-23.35 270.67 -21.7 270.34 -20 270 C-20 267.69 -20 265.38 -20 263 C-21.32 263 -22.64 263 -24 263 C-24.33 257.06 -24.66 251.12 -25 245 C-26.98 245.99 -26.98 245.99 -29 247 C-32 243.25 -32 243.25 -32 241 C-32.66 241 -33.32 241 -34 241 C-34 240.34 -34 239.68 -34 239 C-35.98 238.67 -37.96 238.34 -40 238 C-40 237.34 -40 236.68 -40 236 C-40.99 236 -41.98 236 -43 236 C-43 232.7 -43 229.4 -43 226 C-44.98 226 -46.96 226 -49 226 C-49.495 220.06 -49.495 220.06 -50 214 C-51.65 214.33 -53.3 214.66 -55 215 C-55.33 215.99 -55.66 216.98 -56 218 C-56.721875 217.835 -57.44375 217.67 -58.1875 217.5 C-60.9651501 216.91050936 -60.9651501 216.91050936 -63.6875 217.0625 C-66 217 -66 217 -68 215 C-68 214.01 -68 213.02 -68 212 C-69.32 212 -70.64 212 -72 212 C-71.99555878 212.68460297 -71.99111755 213.36920593 -71.98654175 214.07455444 C-71.94240503 221.17923909 -71.9121739 228.283885 -71.89013672 235.38867188 C-71.88005911 238.04265931 -71.86639687 240.6966356 -71.84912109 243.35058594 C-71.82495008 247.15823107 -71.81353465 250.96572984 -71.8046875 254.7734375 C-71.79436493 255.96617279 -71.78404236 257.15890808 -71.77340698 258.38778687 C-71.77325592 259.48877716 -71.77310486 260.58976746 -71.77294922 261.72412109 C-71.768508 262.69674896 -71.76406677 263.66937683 -71.75949097 264.67147827 C-72 267 -72 267 -74 269 C-76.96875 269.23046875 -76.96875 269.23046875 -80.5 269.1875 C-81.6653125 269.18105469 -82.830625 269.17460937 -84.03125 269.16796875 C-87 269 -87 269 -89 268 C-89 267.34 -89 266.68 -89 266 C-90.65 266 -92.3 266 -94 266 C-94 265.34 -94 264.68 -94 264 C-94.66 264 -95.32 264 -96 264 C-96.33 245.85 -96.66 227.7 -97 209 C-97.99 209.66 -98.98 210.32 -100 211 C-102.31 211 -104.62 211 -107 211 C-107 219.58 -107 228.16 -107 237 C-107.99 237 -108.98 237 -110 237 C-110.33 239.97 -110.66 242.94 -111 246 C-114.3 246 -117.6 246 -121 246 C-121 244.02 -121 242.04 -121 240 C-121.66 240 -122.32 240 -123 240 C-125.14782833 236.77825751 -125.24649148 235.9566269 -125.22705078 232.25317383 C-125.22689972 231.29240433 -125.22674866 230.33163483 -125.22659302 229.3417511 C-125.21627045 228.30729355 -125.20594788 227.272836 -125.1953125 226.20703125 C-125.1924826 225.14586594 -125.18965271 224.08470062 -125.18673706 222.99137878 C-125.17553184 219.59830503 -125.15042647 216.20549413 -125.125 212.8125 C-125.11497065 210.51367568 -125.10584472 208.21484724 -125.09765625 205.91601562 C-125.07559141 200.27725389 -125.04211044 194.63864572 -125 189 C-125.66 189 -126.32 189 -127 189 C-127 220.02 -127 251.04 -127 283 C-153 283 -153 283 -155 282 C-155 262.86 -155 243.72 -155 224 C-155.66 224 -156.32 224 -157 224 C-157 207.17 -157 190.34 -157 173 C-155.35 173 -153.7 173 -152 173 C-152 164.75 -152 156.5 -152 148 C-148.37 148 -144.74 148 -141 148 C-141 148.66 -141 149.32 -141 150 C-140.34 150 -139.68 150 -139 150 C-139 149.01 -139 148.02 -139 147 C-137.68 147 -136.36 147 -135 147 C-135 146.34 -135 145.68 -135 145 C-132.3125 143.375 -132.3125 143.375 -129 142 C-126.125 142.8125 -126.125 142.8125 -124 144 C-124 142.68 -124 141.36 -124 140 C-120.37 140 -116.74 140 -113 140 C-113 137.69 -113 135.38 -113 133 C-107.13190493 133.52393706 -102.45126259 134.76108858 -97 137 C-97 142.61 -97 148.22 -97 154 C-95.68 154 -94.36 154 -93 154 C-93 152.35 -93 150.7 -93 149 C-90.36 149 -87.72 149 -85 149 C-85 133.16 -85 117.32 -85 101 C-84.34 101 -83.68 101 -83 101 C-83 89.12 -83 77.24 -83 65 C-72.61509021 70.19245489 -72.61509021 70.19245489 -69 75 C-67.27056893 80.89644571 -67.82565181 87.30127834 -68 93.375 C-68.02836415 95.86864125 -68.04282257 98.36183242 -68.04931641 100.85562134 C-68.05796384 102.40052882 -68.08185728 103.94544219 -68.12255859 105.48983765 C-68.15536149 107.32671983 -68.08632265 109.16485407 -68 111 C-67.34 111.66 -66.68 112.32 -66 113 C-65.82474945 115.79684797 -65.76856811 118.4932808 -65.8046875 121.2890625 C-65.8075174 122.10748627 -65.81034729 122.92591003 -65.81326294 123.76913452 C-65.82447468 126.38790393 -65.84958071 129.00633364 -65.875 131.625 C-65.88502853 133.39843257 -65.8941546 135.17187049 -65.90234375 136.9453125 C-65.92441722 141.29700626 -65.95895356 145.6484455 -66 150 C-64.88882813 149.91621094 -63.77765625 149.83242187 -62.6328125 149.74609375 C-61.13023834 149.64279178 -59.62763234 149.53995221 -58.125 149.4375 C-57.39796875 149.38142578 -56.6709375 149.32535156 -55.921875 149.26757812 C-49.99779927 148.8778363 -45.0923725 149.39076275 -39 150 C-39 134.82 -39 119.64 -39 104 C-35.535 103.505 -35.535 103.505 -32 103 C-30.35 104.32 -28.7 105.64 -27 107 C-27 100.4 -27 93.8 -27 87 C-25.35 87 -23.7 87 -22 87 C-22.02094727 86.39003174 -22.04189453 85.78006348 -22.06347656 85.15161133 C-22.14692861 82.37207706 -22.19875011 79.5928068 -22.25 76.8125 C-22.30027344 75.37293945 -22.30027344 75.37293945 -22.3515625 73.90429688 C-22.45039862 66.76338748 -22.45039862 66.76338748 -20.15625 62.875 C-17.72990976 60.76513892 -16.17421416 60.26451785 -13 60 C-12.67 63.3 -12.34 66.6 -12 70 C-12.99 70 -13.98 70 -15 70 C-15.33 71.65 -15.66 73.3 -16 75 C-16.99 75 -17.98 75 -19 75 C-19 76.65 -19 78.3 -19 80 C-18.01 80 -17.02 80 -16 80 C-15.67 78.68 -15.34 77.36 -15 76 C-15 77.32 -15 78.64 -15 80 C-14.01 80 -13.02 80 -12 80 C-12 78.35 -12 76.7 -12 75 C-12.66 74.67 -13.32 74.34 -14 74 C-13.34 74 -12.68 74 -12 74 C-11.67 73.01 -11.34 72.02 -11 71 C-9.87951354 74.59507472 -9.87952786 77.94504395 -9.88647461 81.69628906 C-9.88632858 82.36011597 -9.88618256 83.02394287 -9.8860321 83.70788574 C-9.88672668 85.8938325 -9.89449769 88.07969319 -9.90234375 90.265625 C-9.90420955 91.78448439 -9.90563269 93.30334438 -9.90663147 94.82220459 C-9.9104439 98.81377839 -9.9202633 102.80531562 -9.93133545 106.796875 C-9.94157697 110.8723908 -9.94613496 114.94791253 -9.95117188 119.0234375 C-9.96188673 127.01564175 -9.97894784 135.00781632 -10 143 C-9.34 143 -8.68 143 -8 143 C-7.99641747 142.07622464 -7.99641747 142.07622464 -7.99276257 141.13378716 C-7.93341037 126.0907054 -7.85773288 111.04779969 -7.76428509 96.00489616 C-7.71947917 88.73000419 -7.68003031 81.45515951 -7.65356445 74.18017578 C-7.63046031 67.83311296 -7.59692615 61.48620173 -7.55129844 55.13925946 C-7.52753163 51.78415167 -7.51025256 48.42932833 -7.50238609 45.07412338 C-7.41377987 10.73719843 -7.41377987 10.73719843 0 0 Z " fill="#0A0A0A" transform="translate(166,30)"/>
<path d="M0 0 C3.82601624 4.23594655 5.86362904 8.78407302 8 14 C8.99 13.67 9.98 13.34 11 13 C15 19.75 15 19.75 15 22 C15.598125 22.061875 16.19625 22.12375 16.8125 22.1875 C19.94788342 23.35207098 20.53163251 25.05083317 22 28 C22.36914349 30.56741047 22.36914349 30.56741047 22.36076355 33.34675598 C22.36694954 34.93471985 22.36694954 34.93471985 22.3732605 36.55476379 C22.36247467 37.70562973 22.35168884 38.85649567 22.34057617 40.04223633 C22.34101425 41.26216278 22.34145233 42.48208923 22.34190369 43.73898315 C22.34017417 47.07557711 22.32514946 50.41161133 22.30418181 53.74810624 C22.28540297 57.23811579 22.28366363 60.72813314 22.28010559 64.21818542 C22.27078865 70.82316848 22.24617971 77.42800222 22.21605712 84.03291959 C22.18250212 91.55403216 22.16602435 99.07515193 22.15097082 106.59632075 C22.11962976 122.06430025 22.06687619 137.53213085 22 153 C22.99 153 23.98 153 25 153 C24.9800145 151.45357819 24.9800145 151.45357819 24.95962524 149.87591553 C24.83804466 140.16464837 24.7480761 130.45353541 24.68912697 120.74168015 C24.65780144 115.74852555 24.61530643 110.75598484 24.54736328 105.76318359 C24.48221412 100.94559949 24.44630316 96.12860612 24.43073654 91.31061554 C24.41964216 89.47170966 24.39797694 87.63283647 24.36561966 85.79418182 C24.32211328 83.21982242 24.31606314 80.64790951 24.31884766 78.07324219 C24.297276 77.31151199 24.27570435 76.5497818 24.253479 75.76496887 C24.2784729 73.63201904 24.2784729 73.63201904 25 70 C29.06831278 66.54154799 31.85292671 65.40544836 37.03515625 65.6640625 C40.38335748 66.23651838 43.57342532 67.57342532 46 70 C46.09443335 72.30053835 46.11742128 74.60402173 46.11352539 76.90649414 C46.11367142 77.62840439 46.11381744 78.35031464 46.1139679 79.09410095 C46.11326869 81.49114947 46.10547595 83.88812123 46.09765625 86.28515625 C46.0957921 87.94282489 46.09436818 89.60049407 46.09336853 91.25816345 C46.08954312 95.62954214 46.07971265 100.00088781 46.06866455 104.37225342 C46.05845092 108.82954461 46.05387101 113.28684111 46.04882812 117.74414062 C46.0380904 126.49610893 46.02101371 135.24805036 46 144 C46.99 144 47.98 144 49 144 C49 143.34 49 142.68 49 142 C49.99 142 50.98 142 52 142 C52 141.34 52 140.68 52 140 C54.64 140 57.28 140 60 140 C61.4783226 142.95664519 61.06032783 145.74229737 61 149 C62.65 149 64.3 149 66 149 C66 151.31 66 153.62 66 156 C67.98 156 69.96 156 72 156 C71.98223511 155.18504562 71.96447021 154.37009125 71.94616699 153.53044128 C71.7851231 145.80803059 71.66369971 138.08644651 71.58550262 130.3627882 C71.54394624 126.39289767 71.48768993 122.42440715 71.39648438 118.45532227 C71.30883986 114.61669211 71.26157927 110.77939845 71.24098206 106.93984413 C71.22632646 105.48340142 71.19770815 104.02702272 71.15415955 102.57115746 C70.8908971 93.39576945 72.08892292 87.24946908 77.88684082 79.85322571 C80 78 80 78 84 78 C83.91363281 77.09765625 83.82726562 76.1953125 83.73828125 75.265625 C84 72 84 72 85.79296875 69.734375 C86.97826172 68.75210938 86.97826172 68.75210938 88.1875 67.75 C88.96480469 67.08484375 89.74210938 66.4196875 90.54296875 65.734375 C95.35560989 62.33721655 97.92349624 62 104 62 C104 87.41 104 112.82 104 139 C106.97 139 109.94 139 113 139 C113 138.01 113 137.02 113 136 C118.28 136 123.56 136 129 136 C129 138.64 129 141.28 129 144 C129.66 144 130.32 144 131 144 C131.33 146.64 131.66 149.28 132 152 C133.32 152 134.64 152 136 152 C136.33 151.01 136.66 150.02 137 149 C139.31 149 141.62 149 144 149 C144.33 149.99 144.66 150.98 145 152 C145.66 151.67 146.32 151.34 147 151 C148.6674606 150.91573906 150.33825187 150.89274857 152.0078125 150.90234375 C152.99394531 150.90556641 153.98007812 150.90878906 154.99609375 150.91210938 C156.02863281 150.92048828 157.06117188 150.92886719 158.125 150.9375 C159.68541016 150.94426758 159.68541016 150.94426758 161.27734375 150.95117188 C163.85161962 150.96298048 166.42578146 150.97944925 169 151 C169 148.03 169 145.06 169 142 C172.3 141.67 175.6 141.34 179 141 C179 141.99 179 142.98 179 144 C178.01 144 177.02 144 176 144 C176 144.99 176 145.98 176 147 C176.99 147 177.98 147 179 147 C179 147.66 179 148.32 179 149 C178.01 149 177.02 149 176 149 C176 149.99 176 150.98 176 152 C176.99 152 177.98 152 179 152 C178.67 152.66 178.34 153.32 178 154 C177.8509288 156.0745356 177.8509288 156.0745356 179 158 C176.36 158 173.72 158 171 158 C171.33 156.35 171.66 154.7 172 153 C171.34 153 170.68 153 170 153 C169.67 153.99 169.34 154.98 169 156 C168.67 155.34 168.34 154.68 168 154 C166.35 154 164.7 154 163 154 C163 155.65 163 157.3 163 159 C165.31 158.67 167.62 158.34 170 158 C170.66 158.99 171.32 159.98 172 161 C175.58357241 161.25015873 175.58357241 161.25015873 179 161 C179 161.66 179 162.32 179 163 C178.34 163 177.68 163 177 163 C177 163.99 177 164.98 177 166 C177.66 166.33 178.32 166.66 179 167 C173.25 168 173.25 168 171 168 C170.67 168.99 170.34 169.98 170 171 C172.97 171 175.94 171 179 171 C179 171.66 179 172.32 179 173 C180.98 173 182.96 173 185 173 C185 173.33 185 173.66 185 174 C72.14 174 -40.72 174 -157 174 C-157 173.67 -157 173.34 -157 173 C-155.35 173 -153.7 173 -152 173 C-152 164.75 -152 156.5 -152 148 C-148.37 148 -144.74 148 -141 148 C-141 148.66 -141 149.32 -141 150 C-140.34 150 -139.68 150 -139 150 C-139 149.01 -139 148.02 -139 147 C-137.68 147 -136.36 147 -135 147 C-135 146.34 -135 145.68 -135 145 C-132.3125 143.375 -132.3125 143.375 -129 142 C-126.125 142.8125 -126.125 142.8125 -124 144 C-124 142.68 -124 141.36 -124 140 C-120.37 140 -116.74 140 -113 140 C-113 137.69 -113 135.38 -113 133 C-107.13190493 133.52393706 -102.45126259 134.76108858 -97 137 C-97 142.61 -97 148.22 -97 154 C-95.68 154 -94.36 154 -93 154 C-93 152.35 -93 150.7 -93 149 C-90.36 149 -87.72 149 -85 149 C-85 133.16 -85 117.32 -85 101 C-84.34 101 -83.68 101 -83 101 C-83 89.12 -83 77.24 -83 65 C-72.61509021 70.19245489 -72.61509021 70.19245489 -69 75 C-67.27056893 80.89644571 -67.82565181 87.30127834 -68 93.375 C-68.02836415 95.86864125 -68.04282257 98.36183242 -68.04931641 100.85562134 C-68.05796384 102.40052882 -68.08185728 103.94544219 -68.12255859 105.48983765 C-68.15536149 107.32671983 -68.08632265 109.16485407 -68 111 C-67.34 111.66 -66.68 112.32 -66 113 C-65.82474945 115.79684797 -65.76856811 118.4932808 -65.8046875 121.2890625 C-65.8075174 122.10748627 -65.81034729 122.92591003 -65.81326294 123.76913452 C-65.82447468 126.38790393 -65.84958071 129.00633364 -65.875 131.625 C-65.88502853 133.39843257 -65.8941546 135.17187049 -65.90234375 136.9453125 C-65.92441722 141.29700626 -65.95895356 145.6484455 -66 150 C-64.88882813 149.91621094 -63.77765625 149.83242187 -62.6328125 149.74609375 C-61.13023834 149.64279178 -59.62763234 149.53995221 -58.125 149.4375 C-57.39796875 149.38142578 -56.6709375 149.32535156 -55.921875 149.26757812 C-49.99779927 148.8778363 -45.0923725 149.39076275 -39 150 C-39 134.82 -39 119.64 -39 104 C-35.535 103.505 -35.535 103.505 -32 103 C-30.35 104.32 -28.7 105.64 -27 107 C-27 100.4 -27 93.8 -27 87 C-25.35 87 -23.7 87 -22 87 C-22.02094727 86.39003174 -22.04189453 85.78006348 -22.06347656 85.15161133 C-22.14692861 82.37207706 -22.19875011 79.5928068 -22.25 76.8125 C-22.30027344 75.37293945 -22.30027344 75.37293945 -22.3515625 73.90429688 C-22.45039862 66.76338748 -22.45039862 66.76338748 -20.15625 62.875 C-17.72990976 60.76513892 -16.17421416 60.26451785 -13 60 C-12.67 63.3 -12.34 66.6 -12 70 C-12.99 70 -13.98 70 -15 70 C-15.33 71.65 -15.66 73.3 -16 75 C-16.99 75 -17.98 75 -19 75 C-19 76.65 -19 78.3 -19 80 C-18.01 80 -17.02 80 -16 80 C-15.67 78.68 -15.34 77.36 -15 76 C-15 77.32 -15 78.64 -15 80 C-14.01 80 -13.02 80 -12 80 C-12 78.35 -12 76.7 -12 75 C-12.66 74.67 -13.32 74.34 -14 74 C-13.34 74 -12.68 74 -12 74 C-11.67 73.01 -11.34 72.02 -11 71 C-9.87951354 74.59507472 -9.87952786 77.94504395 -9.88647461 81.69628906 C-9.88632858 82.36011597 -9.88618256 83.02394287 -9.8860321 83.70788574 C-9.88672668 85.8938325 -9.89449769 88.07969319 -9.90234375 90.265625 C-9.90420955 91.78448439 -9.90563269 93.30334438 -9.90663147 94.82220459 C-9.9104439 98.81377839 -9.9202633 102.80531562 -9.93133545 106.796875 C-9.94157697 110.8723908 -9.94613496 114.94791253 -9.95117188 119.0234375 C-9.96188673 127.01564175 -9.97894784 135.00781632 -10 143 C-9.34 143 -8.68 143 -8 143 C-7.99641747 142.07622464 -7.99641747 142.07622464 -7.99276257 141.13378716 C-7.93341037 126.0907054 -7.85773288 111.04779969 -7.76428509 96.00489616 C-7.71947917 88.73000419 -7.68003031 81.45515951 -7.65356445 74.18017578 C-7.63046031 67.83311296 -7.59692615 61.48620173 -7.55129844 55.13925946 C-7.52753163 51.78415167 -7.51025256 48.42932833 -7.50238609 45.07412338 C-7.41377987 10.73719843 -7.41377987 10.73719843 0 0 Z " fill="#282828" transform="translate(166,30)"/>
<path d="M0 0 C7.92 0 15.84 0 24 0 C24 7.92 24 15.84 24 24 C31.92 24 39.84 24 48 24 C48 31.92 48 39.84 48 48 C55.92 48 63.84 48 72 48 C72 55.92 72 63.84 72 72 C79.92 72 87.84 72 96 72 C96 79.92 96 87.84 96 96 C88.08 96 80.16 96 72 96 C72 103.92 72 111.84 72 120 C64.08 120 56.16 120 48 120 C48 112.08 48 104.16 48 96 C40.08 96 32.16 96 24 96 C24 88.08 24 80.16 24 72 C21.40125 72.144375 18.8025 72.28875 16.125 72.4375 C14.89934326 72.50215454 14.89934326 72.50215454 13.64892578 72.56811523 C9.69535584 72.73591543 9.69535584 72.73591543 6 74 C6 64.1 6 54.2 6 44 C-1.75085202 45.36536529 -1.75085202 45.36536529 -7.4375 49 C-8.39462891 49.7734375 -8.39462891 49.7734375 -9.37109375 50.5625 C-12.45058733 53.13693685 -12.45058733 53.13693685 -13.3125 57 C-13.539375 57.99 -13.76625 58.98 -14 60 C-15.66328151 60.67506802 -17.33038087 61.34076242 -19 62 C-24.56550005 67.36053612 -25.70723196 73.19361386 -25.8828125 80.67773438 C-25.87894531 82.35319336 -25.87894531 82.35319336 -25.875 84.0625 C-25.895625 85.21427734 -25.91625 86.36605469 -25.9375 87.55273438 C-25.98424668 90.36922157 -26.00447364 93.18320737 -26 96 C-26.66 95.67 -27.32 95.34 -28 95 C-28 87.41 -28 79.82 -28 72 C-34.6 72 -41.2 72 -48 72 C-48 64.08 -48 56.16 -48 48 C-40.08 48 -32.16 48 -24 48 C-24 40.08 -24 32.16 -24 24 C-16.08 24 -8.16 24 0 24 C0 16.08 0 8.16 0 0 Z " fill="#FEFEFE" transform="translate(264,48)"/>
<path d="M0 0 C7.92 0 15.84 0 24 0 C24.33 10.56 24.66 21.12 25 32 C24.01 31.67 23.02 31.34 22 31 C21.36308004 32.45316691 20.74130205 33.9129696 20.125 35.375 C19.60292969 36.59316406 19.60292969 36.59316406 19.0703125 37.8359375 C16.26728272 46.1222664 15.70184925 54.20813338 15.69702148 62.90380859 C15.68436249 64.62274323 15.68436249 64.62274323 15.67144775 66.37640381 C15.64582453 70.13375296 15.63356773 73.89102381 15.62109375 77.6484375 C15.60490697 80.270158 15.58772574 82.89187254 15.56959534 85.51358032 C15.5281299 91.69208319 15.49562483 97.87059411 15.46712118 104.04916918 C15.41290626 115.78365179 15.34493494 127.51803764 15.26918221 139.25239944 C15.24634697 143.10570745 15.23008167 146.95900426 15.21446228 150.81234741 C15.20105853 153.16575242 15.18744398 155.51915623 15.17358398 157.87255859 C15.16966393 159.48250198 15.16966393 159.48250198 15.16566467 161.12496948 C15.15531693 162.60084534 15.15531693 162.60084534 15.14476013 164.10653687 C15.13897776 165.38678269 15.13897776 165.38678269 15.13307858 166.69289207 C15.00452378 168.92157385 14.61993269 170.8607619 14 173 C13.34 173 12.68 173 12 173 C11.67 150.56 11.34 128.12 11 105 C10.67 105 10.34 105 10 105 C10 106.65 10 108.3 10 110 C7.69 110 5.38 110 3 110 C3 108.35 3 106.7 3 105 C4.485 104.505 4.485 104.505 6 104 C6.73323796 101.98491642 6.73323796 101.98491642 7 100 C7.99 100 8.98 100 10 100 C9.67 96.7 9.34 93.4 9 90 C4.85137933 91.94818092 4.85137933 91.94818092 1.13574219 94.5871582 C-1.56816561 96.37585441 -3.20206359 96.34663227 -6.421875 96.29296875 C-7.34581055 96.28547607 -8.26974609 96.2779834 -9.22167969 96.27026367 C-10.38602539 96.24295166 -11.55037109 96.21563965 -12.75 96.1875 C-16.4625 96.125625 -20.175 96.06375 -24 96 C-24 88.08 -24 80.16 -24 72 C-16.08 72 -8.16 72 0 72 C0 64.08 0 56.16 0 48 C-7.92 48 -15.84 48 -24 48 C-24 40.08 -24 32.16 -24 24 C-16.08 24 -8.16 24 0 24 C0 16.08 0 8.16 0 0 Z " fill="#F2F2F2" transform="translate(144,0)"/>
<path d="M0 0 C0.33 0 0.66 0 1 0 C1.33 6.93 1.66 13.86 2 21 C6.29 21 10.58 21 15 21 C15 60.6 15 100.2 15 141 C7.08 141 -0.84 141 -9 141 C-9.4375 129.625 -9.4375 129.625 -9.56811523 126.04150391 C-9.6252771 124.64810791 -9.6252771 124.64810791 -9.68359375 123.2265625 C-9.72025146 122.27346191 -9.75690918 121.32036133 -9.79467773 120.33837891 C-9.85763465 117.97867651 -9.85763465 117.97867651 -11 116 C-9.948125 114.9171875 -9.948125 114.9171875 -8.875 113.8125 C-8.42253906 113.34457031 -7.97007812 112.87664062 -7.50390625 112.39453125 C-6 111 -6 111 -2.8125 109 C1.39423107 105.46795229 1.27470097 100.30767501 1.82107544 95.12896729 C2.46193408 87.50359115 2.49426847 79.83461387 2.625 72.1875 C2.66327505 70.31964516 2.70233192 68.45180616 2.7421875 66.58398438 C2.83712759 62.05612161 2.92152649 57.52817685 3 53 C3.99 53 4.98 53 6 53 C6 46.07 6 39.14 6 32 C4.02 32 2.04 32 0 32 C0 31.34 0 30.68 0 30 C-2.97 30 -5.94 30 -9 30 C-8.67 28.68 -8.34 27.36 -8 26 C-6.02 26 -4.04 26 -2 26 C-2 24.68 -2 23.36 -2 22 C-1.67 21.67 -1.34 21.34 -1 21 C-2.11375 21.061875 -3.2275 21.12375 -4.375 21.1875 C-5.57125 21.125625 -6.7675 21.06375 -8 21 C-8.66 20.01 -9.32 19.02 -10 18 C-13.08365871 17.7497843 -13.08365871 17.7497843 -16 18 C-16 16.35 -16 14.7 -16 13 C-14.33388095 12.957279 -12.66617115 12.95936168 -11 13 C-10.67 13.33 -10.34 13.66 -10 14 C-9.67 13.34 -9.34 12.68 -9 12 C-8.34 12 -7.68 12 -7 12 C-7 13.32 -7 14.64 -7 16 C-4.69 16.33 -2.38 16.66 0 17 C-0.99 16.34 -1.98 15.68 -3 15 C-2.67 14.01 -2.34 13.02 -2 12 C-1.34 11.67 -0.68 11.34 0 11 C-0.99 11 -1.98 11 -3 11 C-3 10.01 -3 9.02 -3 8 C-2.01 8 -1.02 8 0 8 C0 7.34 0 6.68 0 6 C-0.99 6 -1.98 6 -3 6 C-3 5.01 -3 4.02 -3 3 C-2.01 3 -1.02 3 0 3 C0 2.01 0 1.02 0 0 Z " fill="#EEEEEE" transform="translate(345,171)"/>
<path d="M0 0 C0 11.88 0 23.76 0 36 C-0.66 36 -1.32 36 -2 36 C-2 51.84 -2 67.68 -2 84 C-4.64 84 -7.28 84 -10 84 C-10 83.34 -10 82.68 -10 82 C-8.02 82 -6.04 82 -4 82 C-4 79.03 -4 76.06 -4 73 C-6.31 73 -8.62 73 -11 73 C-11 65.08 -11 57.16 -11 49 C-18.92 49 -26.84 49 -35 49 C-35 41.08 -35 33.16 -35 25 C-27.08 25 -19.16 25 -11 25 C-11 17.08 -11 9.16 -11 1 C-1 0 -1 0 0 0 Z " fill="#FEFEFE" transform="translate(83,95)"/>
<path d="M0 0 C0.33 0 0.66 0 1 0 C1 5.61 1 11.22 1 17 C8.92 17 16.84 17 25 17 C25 24.92 25 32.84 25 41 C17.08 41 9.16 41 1 41 C1 48.92 1 56.84 1 65 C-6.92 65 -14.84 65 -23 65 C-23 60.05 -23 55.1 -23 50 C-20.69 50.33 -18.38 50.66 -16 51 C-13.73098345 51.110246 -11.45915478 51.17427733 -9.1875 51.1875 C-8.06730469 51.20167969 -6.94710937 51.21585937 -5.79296875 51.23046875 C-2.86046551 51.2915059 -2.86046551 51.2915059 -1 49 C-0.66947545 46.81875409 -0.66947545 46.81875409 -0.68115234 44.27490234 C-0.66128265 43.29403656 -0.64141296 42.31317078 -0.62094116 41.30258179 C-0.60938995 40.24108917 -0.59783875 39.17959656 -0.5859375 38.0859375 C-0.56657135 37.00116119 -0.5472052 35.91638489 -0.5272522 34.79873657 C-0.46733574 31.32423841 -0.42102261 27.84970733 -0.375 24.375 C-0.33683135 22.02342282 -0.29778029 19.67185979 -0.2578125 17.3203125 C-0.16162441 11.5470003 -0.07661247 5.77360334 0 0 Z " fill="#FEFEFE" transform="translate(95,247)"/>
<path d="M0 0 C1.32 0 2.64 0 4 0 C4.66 1.32 5.32 2.64 6 4 C7.27875 3.979375 8.5575 3.95875 9.875 3.9375 C13.75 3.875 13.75 3.875 16 5 C16.33 4.34 16.66 3.68 17 3 C18.98 2.34 20.96 1.68 23 1 C23 5.29 23 9.58 23 14 C24.98 14 26.96 14 29 14 C29 17.3 29 20.6 29 24 C29.99 24 30.98 24 32 24 C32 24.66 32 25.32 32 26 C33.98 26.33 35.96 26.66 38 27 C38 27.66 38 28.32 38 29 C38.66 29 39.32 29 40 29 C41.625 31.5 41.625 31.5 43 34 C46.0745356 33.2236068 46.0745356 33.2236068 48 31 C48 37.6 48 44.2 48 51 C47.67 51 47.34 51 47 51 C46.67 49.35 46.34 47.7 46 46 C39.4 46 32.8 46 26 46 C26 38.08 26 30.16 26 22 C18.08 22 10.16 22 2 22 C1.67 32.56 1.34 43.12 1 54 C0.67 54 0.34 54 0 54 C0 36.18 0 18.36 0 0 Z " fill="#EDEDED" transform="translate(94,242)"/>
<path d="M0 0 C0.33 0 0.66 0 1 0 C1 7.92 1 15.84 1 24 C1.66 24 2.32 24 3 24 C3 16.08 3 8.16 3 0 C10.92 0 18.84 0 27 0 C27 7.92 27 15.84 27 24 C25.02 24.33 23.04 24.66 21 25 C20.34 25.33 19.68 25.66 19 26 C18.01 25.67 17.02 25.34 16 25 C8.97803459 24.53725185 8.97803459 24.53725185 3 28 C2.48213703 30.84497669 2.30844155 33.1085146 2.34057617 35.9597168 C2.33009247 36.76970123 2.31960876 37.57968567 2.30880737 38.41421509 C2.27999336 41.09293629 2.28635601 43.77036995 2.29296875 46.44921875 C2.2798575 48.3058281 2.26455505 50.16242316 2.24714661 52.01899719 C2.20721644 56.90662119 2.19710102 61.79387274 2.19311523 66.68164062 C2.18379886 71.66873531 2.14639477 76.65560978 2.11132812 81.64257812 C2.04667072 91.42837506 2.01349753 101.21400817 2 111 C1.01 111 0.02 111 -1 111 C-1.02341086 100.07111062 -1.04105886 89.14222744 -1.05181217 78.21331787 C-1.05697925 73.1358551 -1.06396113 68.05840977 -1.07543945 62.98095703 C-1.17053406 19.82649806 -1.17053406 19.82649806 0 0 Z " fill="#FDFDFD" transform="translate(189,72)"/>
<path d="M0 0 C0 1.32 0 2.64 0 4 C2.31 4 4.62 4 7 4 C5.68 4.33 4.36 4.66 3 5 C3 6.32 3 7.64 3 9 C3.66 9.33 4.32 9.66 5 10 C3.35 10 1.7 10 0 10 C0 12.64 0 15.28 0 18 C1.32 18.33 2.64 18.66 4 19 C2.68 19 1.36 19 0 19 C0 21.97 0 24.94 0 28 C-9.9 28 -19.8 28 -30 28 C-30 20.08 -30 12.16 -30 4 C-26.37 4 -22.74 4 -19 4 C-19 4.66 -19 5.32 -19 6 C-18.34 6 -17.68 6 -17 6 C-17 5.01 -17 4.02 -17 3 C-15.68 3 -14.36 3 -13 3 C-13 2.34 -13 1.68 -13 1 C-7.98302063 -2.18149912 -5.51154192 -2.09438593 0 0 Z " fill="#0F0F0F" transform="translate(44,174)"/>
<path d="M0 0 C7.92 0 15.84 0 24 0 C24 7.92 24 15.84 24 24 C26.31 24 28.62 24 31 24 C31 26.97 31 29.94 31 33 C27 34 27 34 25 33 C25 35.31 25 37.62 25 40 C23.68 40 22.36 40 21 40 C21 34.39 21 28.78 21 23 C15.72 21.68 10.44 20.36 5 19 C5 21.31 5 23.62 5 26 C1.37 26 -2.26 26 -6 26 C-6 27.32 -6 28.64 -6 30 C-7.051875 29.690625 -7.051875 29.690625 -8.125 29.375 C-11.60186072 28.92149643 -13.77398123 29.72459723 -17 31 C-17 31.66 -17 32.32 -17 33 C-19.31 33 -21.62 33 -24 33 C-24 30.03 -24 27.06 -24 24 C-16.08 24 -8.16 24 0 24 C0 16.08 0 8.16 0 0 Z " fill="#EDEDED" transform="translate(48,144)"/>
<path d="M0 0 C2.31 0 4.62 0 7 0 C7.06058594 0.84304687 7.12117187 1.68609375 7.18359375 2.5546875 C7.26738281 3.65039062 7.35117188 4.74609375 7.4375 5.875 C7.51871094 6.96554688 7.59992187 8.05609375 7.68359375 9.1796875 C7.83001703 11.94728971 7.83001703 11.94728971 9 14 C9.66 14 10.32 14 11 14 C11 33.14 11 52.28 11 72 C7.37 72 3.74 72 0 72 C0 48.24 0 24.48 0 0 Z " fill="#FEFEFE" transform="translate(0,240)"/>
<path d="M0 0 C0.99 0 1.98 0 3 0 C3 8.58 3 17.16 3 26 C8.28 26.33 13.56 26.66 19 27 C19 25.02 19 23.04 19 21 C20.32 21 21.64 21 23 21 C23.495 35.355 23.495 35.355 24 50 C26.31 50 28.62 50 31 50 C31 50.66 31 51.32 31 52 C31.66 52 32.32 52 33 52 C33 53.32 33 54.64 33 56 C25.08 56 17.16 56 9 56 C9 48.08 9 40.16 9 32 C4.05 32 -0.9 32 -6 32 C-5.67 27.71 -5.34 23.42 -5 19 C-3.35 19 -1.7 19 0 19 C0 12.73 0 6.46 0 0 Z " fill="#EDEDED" transform="translate(231,256)"/>
<path d="M0 0 C4.95 0.33 9.9 0.66 15 1 C14.98839844 2.10859375 14.97679687 3.2171875 14.96484375 4.359375 C14.95546208 5.82291498 14.94636229 7.28645678 14.9375 8.75 C14.92912109 9.47960937 14.92074219 10.20921875 14.91210938 10.9609375 C14.86211785 15.00189441 14.86211785 15.00189441 15.5 18.97265625 C16.0415119 21.16831779 16.11378945 23.06947702 16.09765625 25.328125 C16.09515869 26.0490332 16.09266113 26.76994141 16.09008789 27.51269531 C16.08098389 28.41600586 16.07187988 29.31931641 16.0625 30.25 C16.041875 33.1375 16.02125 36.025 16 39 C10.06 39 4.12 39 -2 39 C-2 34.38 -2 29.76 -2 25 C-3.98 25 -5.96 25 -8 25 C-8 24.67 -8 24.34 -8 24 C-4.535 23.505 -4.535 23.505 -1 23 C-0.67 15.41 -0.34 7.82 0 0 Z " fill="#E7E7E7" transform="translate(314,249)"/>
<path d="M0 0 C0.33 0 0.66 0 1 0 C1 30.69 1 61.38 1 93 C3.64 93 6.28 93 9 93 C9 100.92 9 108.84 9 117 C1.08 117 -6.84 117 -15 117 C-15 110.07 -15 103.14 -15 96 C-7.575 95.01 -7.575 95.01 0 94 C0 62.98 0 31.96 0 0 Z " fill="#E2E2E2" transform="translate(39,219)"/>
<path d="M0 0 C1.32 0 2.64 0 4 0 C4.33 7.92 4.66 15.84 5 24 C5.99 23.67 6.98 23.34 8 23 C8 30.92 8 38.84 8 47 C0.08 47 -7.84 47 -16 47 C-16 39.08 -16 31.16 -16 23 C-10.06 23 -4.12 23 2 23 C1.85962362 19.54136482 1.7129541 16.08319863 1.5625 12.625 C1.52318359 11.64015625 1.48386719 10.6553125 1.44335938 9.640625 C1.40146484 8.69960938 1.35957031 7.75859375 1.31640625 6.7890625 C1.27974854 5.91975098 1.24309082 5.05043945 1.20532227 4.15478516 C1.12598456 1.9516738 1.12598456 1.9516738 0 0 Z " fill="#FBFBFB" transform="translate(328,265)"/>
<path d="M0 0 C-0.33 6.93 -0.66 13.86 -1 21 C-2.65 21 -4.3 21 -6 21 C-6 27.6 -6 34.2 -6 41 C-7.32 40.34 -8.64 39.68 -10 39 C-12.3243602 38.30269194 -14.65673706 37.63087848 -17 37 C-16.67 36.34 -16.34 35.68 -16 35 C-10.25 34.875 -10.25 34.875 -8 36 C-8.020625 34.948125 -8.04125 33.89625 -8.0625 32.8125 C-8 29 -8 29 -7 24 C-12.94 24 -18.88 24 -25 24 C-25 16.08 -25 8.16 -25 0 C-21.24625 -0.185625 -17.4925 -0.37125 -13.625 -0.5625 C-12.44244629 -0.62381104 -11.25989258 -0.68512207 -10.04150391 -0.74829102 C-8.64810791 -0.81294556 -8.64810791 -0.81294556 -7.2265625 -0.87890625 C-6.27346191 -0.9260376 -5.32036133 -0.97316895 -4.33837891 -1.02172852 C-2 -1 -2 -1 0 0 Z " fill="#FEFEFE" transform="translate(145,96)"/>
<path d="M0 0 C0.99 0 1.98 0 3 0 C3 1.65 3 3.3 3 5 C3.99 5 4.98 5 6 5 C6 3.35 6 1.7 6 0 C6.99 0 7.98 0 9 0 C9 1.65 9 3.3 9 5 C10.32 5 11.64 5 13 5 C13 3.35 13 1.7 13 0 C13.99 0 14.98 0 16 0 C16 1.32 16 2.64 16 4 C17.98 4.495 17.98 4.495 20 5 C20 3.35 20 1.7 20 0 C20.99 0 21.98 0 23 0 C23.33 1.65 23.66 3.3 24 5 C105.675 5.495 105.675 5.495 189 6 C189 6.33 189 6.66 189 7 C76.14 7 -36.72 7 -153 7 C-153 6.67 -153 6.34 -153 6 C-148.9269597 5.02314635 -145.131793 4.88454556 -140.94921875 4.90234375 C-140.29041214 4.9037587 -139.63160553 4.90517365 -138.95283508 4.90663147 C-136.86434238 4.912195 -134.77595989 4.92474053 -132.6875 4.9375 C-131.26497551 4.94251972 -129.84244934 4.9470818 -128.41992188 4.95117188 C-124.94657923 4.96215243 -121.47330039 4.97939165 -118 5 C-118 3.68 -118 2.36 -118 1 C-115.36 1 -112.72 1 -110 1 C-110 2.32 -110 3.64 -110 5 C-73.7 5 -37.4 5 0 5 C0 3.35 0 1.7 0 0 Z " fill="#8B8B8B" transform="translate(162,197)"/>
<path d="M0 0 C7.92 0 15.84 0 24 0 C24 7.92 24 15.84 24 24 C14 25 14 25 10 24 C6.7 24 3.4 24 0 24 C0 16.08 0 8.16 0 0 Z " fill="#EDEDED" transform="translate(72,72)"/>
<path d="M0 0 C6.6 0 13.2 0 20 0 C20.33 1.98 20.66 3.96 21 6 C21.99 6 22.98 6 24 6 C24 6.66 24 7.32 24 8 C25.65 8 27.3 8 29 8 C28.67 8.66 28.34 9.32 28 10 C26.68 9.67 25.36 9.34 24 9 C24 13.95 24 18.9 24 24 C16.08 24 8.16 24 0 24 C0 16.08 0 8.16 0 0 Z " fill="#EBEBEB" transform="translate(48,288)"/>
<path d="M0 0 C7.92 0 15.84 0 24 0 C24 7.92 24 15.84 24 24 C18.72 24 13.44 24 8 24 C8 23.01 8 22.02 8 21 C5.36 20.67 2.72 20.34 0 20 C0 13.4 0 6.8 0 0 Z " fill="#EDEDED" transform="translate(288,144)"/>
<path d="M0 0 C7.92 0 15.84 0 24 0 C24 7.92 24 15.84 24 24 C16.74 24 9.48 24 2 24 C2.125 16.625 2.125 16.625 2.18017578 14.30712891 C2.1948117 12.53712725 2.09928514 10.76727545 2 9 C1.34 8.34 0.68 7.68 0 7 C0 4.69 0 2.38 0 0 Z " fill="#EDEDED" transform="translate(96,96)"/>
<path d="M0 0 C7.92 0 15.84 0 24 0 C24 7.92 24 15.84 24 24 C18.72 24 13.44 24 8 24 C7.34 22.35 6.68 20.7 6 19 C4.02 19 2.04 19 0 19 C0 12.73 0 6.46 0 0 Z " fill="#EDEDED" transform="translate(264,72)"/>
<path d="M0 0 C10.4622871 5.23114355 10.4622871 5.23114355 14 10 C15.65224924 15.96354527 14.9391043 22.39333825 14.625 28.5 C14.57477924 30.19778555 14.52916232 31.89571389 14.48828125 33.59375 C14.37866322 37.7327206 14.20650697 41.86477738 14 46 C13.67 46 13.34 46 13 46 C12.67 40.39 12.34 34.78 12 29 C11.67 32.63 11.34 36.26 11 40 C9.68 40 8.36 40 7 40 C6.67 40.99 6.34 41.98 6 43 C5.01 42.67 4.02 42.34 3 42 C2.67 42.66 2.34 43.32 2 44 C1.34 44 0.68 44 0 44 C-0.33 44.66 -0.66 45.32 -1 46 C-0.67 30.82 -0.34 15.64 0 0 Z M3 43 C3.99 43.33 4.98 43.66 6 44 C6 45.65 6 47.3 6 49 C5.01 49 4.02 49 3 49 C3 47.02 3 45.04 3 43 Z " fill="#494949" transform="translate(83,95)"/>
<path d="M0 0 C0.66 0 1.32 0 2 0 C2 3.96 2 7.92 2 12 C2.66 12 3.32 12 4 12 C4 13.65 4 15.3 4 17 C4.66 17 5.32 17 6 17 C6 17.99 6 18.98 6 20 C7.98 20 9.96 20 12 20 C12 24.62 12 29.24 12 34 C4.08 34 -3.84 34 -12 34 C-12 26.08 -12 18.16 -12 10 C-8.04 10 -4.08 10 0 10 C0 6.7 0 3.4 0 0 Z " fill="#FCFCFC" transform="translate(300,254)"/>
<path d="M0 0 C4.95 0 9.9 0 15 0 C15 7.92 15 15.84 15 24 C7.08 24 -0.84 24 -9 24 C-9 19.71 -9 15.42 -9 11 C-10.65 10.67 -12.3 10.34 -14 10 C-14 9.67 -14 9.34 -14 9 C-9.38 9 -4.76 9 0 9 C0 6.03 0 3.06 0 0 Z " fill="#FEFEFE" transform="translate(225,288)"/>
<path d="M0 0 C6.6 0 13.2 0 20 0 C20 7.92 20 15.84 20 24 C13.4 24 6.8 24 0 24 C0 16.08 0 8.16 0 0 Z " fill="#EDEDED" transform="translate(216,120)"/>
<path d="M0 0 C5.94 0 11.88 0 18 0 C18 7.92 18 15.84 18 24 C12.06 24 6.12 24 0 24 C0 16.08 0 8.16 0 0 Z " fill="#EDEDED" transform="translate(102,144)"/>
<path d="M0 0 C0.33 0 0.66 0 1 0 C1.33 6.93 1.66 13.86 2 21 C6.29 21 10.58 21 15 21 C15 28.92 15 36.84 15 45 C12.36 45 9.72 45 7 45 C7 40.71 7 36.42 7 32 C4.69 32 2.38 32 0 32 C0 31.34 0 30.68 0 30 C-2.97 30 -5.94 30 -9 30 C-8.67 28.68 -8.34 27.36 -8 26 C-6.02 26 -4.04 26 -2 26 C-2 24.68 -2 23.36 -2 22 C-1.67 21.67 -1.34 21.34 -1 21 C-2.11375 21.061875 -3.2275 21.12375 -4.375 21.1875 C-5.57125 21.125625 -6.7675 21.06375 -8 21 C-8.66 20.01 -9.32 19.02 -10 18 C-13.08365871 17.7497843 -13.08365871 17.7497843 -16 18 C-16 16.35 -16 14.7 -16 13 C-14.33388095 12.957279 -12.66617115 12.95936168 -11 13 C-10.67 13.33 -10.34 13.66 -10 14 C-9.67 13.34 -9.34 12.68 -9 12 C-8.34 12 -7.68 12 -7 12 C-7 13.32 -7 14.64 -7 16 C-4.69 16.33 -2.38 16.66 0 17 C-0.99 16.34 -1.98 15.68 -3 15 C-2.67 14.01 -2.34 13.02 -2 12 C-1.34 11.67 -0.68 11.34 0 11 C-0.99 11 -1.98 11 -3 11 C-3 10.01 -3 9.02 -3 8 C-2.01 8 -1.02 8 0 8 C0 7.34 0 6.68 0 6 C-0.99 6 -1.98 6 -3 6 C-3 5.01 -3 4.02 -3 3 C-2.01 3 -1.02 3 0 3 C0 2.01 0 1.02 0 0 Z " fill="#EEEEEE" transform="translate(345,171)"/>
<path d="M0 0 C5.28 0 10.56 0 16 0 C16 7.92 16 15.84 16 24 C10.72 24 5.44 24 0 24 C0 16.08 0 8.16 0 0 Z " fill="#EDEDED" transform="translate(272,120)"/>
<path d="M0 0 C7.92 0 15.84 0 24 0 C24 7.92 24 15.84 24 24 C19.71 24 15.42 24 11 24 C11.33 26.64 11.66 29.28 12 32 C11.01 32.495 11.01 32.495 10 33 C10 23.1 10 13.2 10 3 C6.37 3.33 2.74 3.66 -1 4 C-0.67 2.68 -0.34 1.36 0 0 Z " fill="#FDFDFD" transform="translate(336,168)"/>
<path d="M0 0 C0.99 0.33 1.98 0.66 3 1 C2.67 17.17 2.34 33.34 2 50 C-5.92 50 -13.84 50 -22 50 C-22 47.36 -22 44.72 -22 42 C-16.72 42 -11.44 42 -6 42 C-6 41.34 -6 40.68 -6 40 C-3.525 39.505 -3.525 39.505 -1 39 C-2.65 38.67 -4.3 38.34 -6 38 C-6 35.69 -6 33.38 -6 31 C-4.68 31 -3.36 31 -2 31 C-2.01047363 30.13197754 -2.02094727 29.26395508 -2.03173828 28.36962891 C-2.06579716 25.15300472 -2.09088767 21.93647233 -2.10986328 18.71972656 C-2.11992877 17.32679219 -2.13358234 15.93387898 -2.15087891 14.54101562 C-2.1751022 12.5404564 -2.18540814 10.53974385 -2.1953125 8.5390625 C-2.20578613 7.33459473 -2.21625977 6.13012695 -2.22705078 4.88916016 C-2 2 -2 2 0 0 Z " fill="#EAEAEA" transform="translate(166,262)"/>
<path d="M0 0 C0.33 3.3 0.66 6.6 1 10 C0.01 10 -0.98 10 -2 10 C-2.33 11.65 -2.66 13.3 -3 15 C-3.99 15 -4.98 15 -6 15 C-6 16.65 -6 18.3 -6 20 C-5.01 20 -4.02 20 -3 20 C-2.67 18.68 -2.34 17.36 -2 16 C-2 17.32 -2 18.64 -2 20 C-1.01 20 -0.02 20 1 20 C1 18.35 1 16.7 1 15 C0.34 14.67 -0.32 14.34 -1 14 C-0.34 14 0.32 14 1 14 C1.33 13.01 1.66 12.02 2 11 C2.78688445 13.77723925 3.11949924 16.22610077 3.09765625 19.109375 C3.09443359 19.86347656 3.09121094 20.61757812 3.08789062 21.39453125 C3.07951172 22.17183594 3.07113281 22.94914062 3.0625 23.75 C3.05798828 24.54277344 3.05347656 25.33554688 3.04882812 26.15234375 C3.03708565 28.10159508 3.01915146 30.05080738 3 32 C-1.26159382 34.13079691 -7.40763702 33.04502317 -12 33 C-12.33 37.95 -12.66 42.9 -13 48 C-13.66 47.67 -14.32 47.34 -15 47 C-14.67 40.4 -14.34 33.8 -14 27 C-12.35 27 -10.7 27 -9 27 C-9.02094727 26.39003174 -9.04189453 25.78006348 -9.06347656 25.15161133 C-9.14692861 22.37207706 -9.19875011 19.5928068 -9.25 16.8125 C-9.30027344 15.37293945 -9.30027344 15.37293945 -9.3515625 13.90429688 C-9.45069252 6.74215277 -9.45069252 6.74215277 -7.109375 2.88671875 C-4.42637754 0.48692658 -3.63630751 0 0 0 Z " fill="#333333" transform="translate(153,90)"/>
<path d="M0 0 C0.33 0 0.66 0 1 0 C1.0233596 14.40351591 1.04092776 28.80702888 1.05181217 43.21055984 C1.05703556 49.8983554 1.06399892 56.58613784 1.07543945 63.27392578 C1.08628757 69.72538122 1.09228094 76.17682442 1.09487724 82.62828827 C1.09672801 85.09230492 1.10034196 87.55632088 1.10573006 90.02033234 C1.11296596 93.46571817 1.11398985 96.91105313 1.11352539 100.35644531 C1.11712067 101.37999619 1.12071594 102.40354706 1.12442017 103.45811462 C1.1230455 104.39758438 1.12167084 105.33705414 1.12025452 106.30499268 C1.12117631 107.11985767 1.1220981 107.93472267 1.12304783 108.77428055 C1.00149899 110.9728859 0.60920013 112.88899208 0 115 C-0.66 115 -1.32 115 -2 115 C-2.33 92.56 -2.66 70.12 -3 47 C-3.33 47 -3.66 47 -4 47 C-4 48.65 -4 50.3 -4 52 C-6.31 52 -8.62 52 -11 52 C-11 50.35 -11 48.7 -11 47 C-9.515 46.505 -9.515 46.505 -8 46 C-7.26676204 43.98491642 -7.26676204 43.98491642 -7 42 C-6.01 42 -5.02 42 -4 42 C-3.67 40.68 -3.34 39.36 -3 38 C-2.34 38 -1.68 38 -1 38 C-0.67 25.46 -0.34 12.92 0 0 Z " fill="#D4D4D4" transform="translate(158,58)"/>
<path d="M0 0 C4.62 0 9.24 0 14 0 C13.67 7.92 13.34 15.84 13 24 C8.71 24 4.42 24 0 24 C0 16.08 0 8.16 0 0 Z " fill="#EDEDED" transform="translate(144,48)"/>
<path d="M0 0 C2.64 0 5.28 0 8 0 C8.33 2.97 8.66 5.94 9 9 C9.99 9.33 10.98 9.66 12 10 C12 10.66 12 11.32 12 12 C13.32 12 14.64 12 16 12 C17.10087193 19.01805857 17.09733092 25.90565767 17 33 C16.67 33 16.34 33 16 33 C16 30.03 16 27.06 16 24 C10.72 24 5.44 24 0 24 C0 16.08 0 8.16 0 0 Z " fill="#FDFDFD" transform="translate(192,264)"/>
<path d="M0 0 C0.33 0 0.66 0 1 0 C1 4.29 1 8.58 1 13 C3.64 13 6.28 13 9 13 C9 20.92 9 28.84 9 37 C5.7 37 2.4 37 -1 37 C-1 44.59 -1 52.18 -1 60 C-1.33 60 -1.66 60 -2 60 C-2 47.13 -2 34.26 -2 21 C-1.34 21 -0.68 21 0 21 C0 14.07 0 7.14 0 0 Z " fill="#FEFEFE" transform="translate(351,203)"/>
<path d="M0 0 C5.94 0 11.88 0 18 0 C18 4.29 18 8.58 18 13 C17.01 13.495 17.01 13.495 16 14 C15.34 13.34 14.68 12.68 14 12 C11.41645782 11.83312552 11.41645782 11.83312552 9 12 C9 12.66 9 13.32 9 14 C8.01 14.33 7.02 14.66 6 15 C5.67 17.97 5.34 20.94 5 24 C3.35 24 1.7 24 0 24 C0 16.08 0 8.16 0 0 Z " fill="#EDEDED" transform="translate(120,120)"/>
<path d="M0 0 C0.33 0 0.66 0 1 0 C1 15.51 1 31.02 1 47 C-1.64 47 -4.28 47 -7 47 C-7 46.34 -7 45.68 -7 45 C-5.02 45 -3.04 45 -1 45 C-1 42.03 -1 39.06 -1 36 C-3.31 36 -5.62 36 -8 36 C-8 28.08 -8 20.16 -8 12 C-5.69 12 -3.38 12 -1 12 C-1.01160156 11.21753906 -1.02320312 10.43507812 -1.03515625 9.62890625 C-1.04417969 8.61699219 -1.05320312 7.60507813 -1.0625 6.5625 C-1.07410156 5.55316406 -1.08570312 4.54382813 -1.09765625 3.50390625 C-1 1 -1 1 0 0 Z " fill="#FEFEFE" transform="translate(80,132)"/>
<path d="M0 0 C0.99 0 1.98 0 3 0 C3 1.65 3 3.3 3 5 C3.99 5 4.98 5 6 5 C6 3.35 6 1.7 6 0 C6.99 0 7.98 0 9 0 C9 1.65 9 3.3 9 5 C10.32 5 11.64 5 13 5 C13 3.35 13 1.7 13 0 C13.99 0 14.98 0 16 0 C16 1.32 16 2.64 16 4 C17.32 4.33 18.64 4.66 20 5 C20 3.35 20 1.7 20 0 C20.99 0 21.98 0 23 0 C23.33 1.65 23.66 3.3 24 5 C105.675 5.495 105.675 5.495 189 6 C189 6.33 189 6.66 189 7 C165.39104426 7.02336226 141.78209024 7.04099555 118.17312527 7.05181217 C107.21103466 7.05696805 96.24895123 7.06399728 85.28686523 7.07543945 C75.73211588 7.0854079 66.17737172 7.09185859 56.6226173 7.09408849 C51.5636611 7.09539192 46.50471979 7.09845457 41.44576836 7.10573006 C36.68277886 7.11252433 31.91981036 7.11461001 27.15681648 7.11310768 C25.41013093 7.11338248 23.66344466 7.11536737 21.91676331 7.11920547 C19.52821838 7.12419594 17.13975227 7.12297858 14.75120544 7.12025452 C13.71956139 7.12462378 13.71956139 7.12462378 12.66707605 7.12908131 C8.33754904 7.11577664 4.25998501 6.69571889 0 6 C0 4.02 0 2.04 0 0 Z " fill="#9A9A9A" transform="translate(162,197)"/>
<path d="M0 0 C2.31 0 4.62 0 7 0 C7.06058594 0.84304687 7.12117187 1.68609375 7.18359375 2.5546875 C7.26738281 3.65039062 7.35117188 4.74609375 7.4375 5.875 C7.51871094 6.96554688 7.59992187 8.05609375 7.68359375 9.1796875 C7.83001703 11.94728971 7.83001703 11.94728971 9 14 C9.66 14 10.32 14 11 14 C11 33.14 11 52.28 11 72 C10.67 72 10.34 72 10 72 C9.67 56.16 9.34 40.32 9 24 C6.03 24 3.06 24 0 24 C0 16.08 0 8.16 0 0 Z " fill="#E5E5E5" transform="translate(0,240)"/>
<path d="M0 0 C7.92 0 15.84 0 24 0 C24 0.99 24 1.98 24 3 C23.01 3.495 23.01 3.495 22 4 C21.67 6.31 21.34 8.62 21 11 C14.07 11 7.14 11 0 11 C0 7.37 0 3.74 0 0 Z " fill="#EDEDED" transform="translate(312,168)"/>
<path d="M0 0 C3.96 0 7.92 0 12 0 C12.1953125 6.8359375 12.1953125 6.8359375 12 9 C11.34 9.66 10.68 10.32 10 11 C9.53513282 14.12196336 9.53513282 14.12196336 9.375 17.625 C9.30023438 18.81351563 9.22546875 20.00203125 9.1484375 21.2265625 C9.09945313 22.14179688 9.05046875 23.05703125 9 24 C6.03 24 3.06 24 0 24 C0 16.08 0 8.16 0 0 Z " fill="#EEEEEE" transform="translate(0,192)"/>
<path d="M0 0 C0.763125 0.185625 1.52625 0.37125 2.3125 0.5625 C5.08967375 1.22819173 5.08967375 1.22819173 8 0 C8.95261487 4.76307437 9.08333357 9.1666528 9 14 C9.66 14 10.32 14 11 14 C11 15.65 11 17.3 11 19 C3.41 19 -4.18 19 -12 19 C-10.38371879 15.76743757 -7.23006285 15.32663296 -4 14 C-2.33657163 12.33657163 -2.63951903 10.2174291 -2.4375 7.9375 C-2.35371094 7.01839844 -2.26992187 6.09929687 -2.18359375 5.15234375 C-2.12300781 4.44207031 -2.06242188 3.73179687 -2 3 C-1.34 3 -0.68 3 0 3 C0 2.01 0 1.02 0 0 Z " fill="#F8F8F8" transform="translate(180,245)"/>
<path d="M0 0 C2.31 0 4.62 0 7 0 C7 3.63 7 7.26 7 11 C8.32 11 9.64 11 11 11 C12.49640828 15.48922485 11.54749697 19.31585924 11 24 C7.04 24 3.08 24 -1 24 C-1.026926 20.56244791 -1.04680317 17.12510592 -1.0625 13.6875 C-1.07087891 12.71103516 -1.07925781 11.73457031 -1.08789062 10.72851562 C-1.09111328 9.79072266 -1.09433594 8.85292969 -1.09765625 7.88671875 C-1.10551147 6.59060669 -1.10551147 6.59060669 -1.11352539 5.26831055 C-1 3 -1 3 0 0 Z " fill="#EDEDED" transform="translate(289,240)"/>
<path d="M0 0 C2.97 0 5.94 0 9 0 C9 7.92 9 15.84 9 24 C6.03 24 3.06 24 0 24 C0 16.08 0 8.16 0 0 Z " fill="#EEEEEE" transform="translate(0,288)"/>
<path d="M0 0 C3.96 0 7.92 0 12 0 C12 15.84 12 31.68 12 48 C10.68 48 9.36 48 8 48 C7.98541748 46.87505127 7.97083496 45.75010254 7.95581055 44.59106445 C7.89772246 40.40682613 7.82049036 36.22312003 7.73754883 32.03930664 C7.70434886 30.23047542 7.67630159 28.42154182 7.65356445 26.61254883 C7.61992742 24.00818367 7.56760805 21.4047524 7.51171875 18.80078125 C7.50532883 17.99538406 7.4989389 17.18998688 7.49235535 16.36018372 C7.37380264 11.8058718 7.01053684 8.65961586 4 5 C3.01 4.67 2.02 4.34 1 4 C0.67 2.68 0.34 1.36 0 0 Z " fill="#F4F4F4" transform="translate(180,48)"/>
<path d="M0 0 C0.33 0 0.66 0 1 0 C1 5.61 1 11.22 1 17 C3.31 17 5.62 17 8 17 C8 24.92 8 32.84 8 41 C5.36 41 2.72 41 0 41 C0 27.47 0 13.94 0 0 Z " fill="#FEFEFE" transform="translate(40,271)"/>
<path d="M0 0 C0.99 0 1.98 0 3 0 C3 8.58 3 17.16 3 26 C4.98 26.33 6.96 26.66 9 27 C9 28.65 9 30.3 9 32 C4.05 32 -0.9 32 -6 32 C-5.67 27.71 -5.34 23.42 -5 19 C-3.35 19 -1.7 19 0 19 C0 12.73 0 6.46 0 0 Z " fill="#E5E5E5" transform="translate(231,256)"/>
<path d="M0 0 C2.97 0 5.94 0 9 0 C8.93489583 2.27864583 8.86979167 4.55729167 8.8046875 6.8359375 C8.78629949 9.21342243 8.78629949 9.21342243 11 11 C10.01 11.66 9.02 12.32 8 13 C7.41651248 15.6556728 7.41651248 15.6556728 7.3125 18.625 C7.24675781 19.62789062 7.18101563 20.63078125 7.11328125 21.6640625 C7.07589844 22.43492187 7.03851563 23.20578125 7 24 C4.69 24 2.38 24 0 24 C0 16.08 0 8.16 0 0 Z " fill="#EDEDED" transform="translate(72,120)"/>
<path d="M0 0 C4.29 0.33 8.58 0.66 13 1 C13 5.29 13 9.58 13 14 C9.04 14 5.08 14 1 14 C1 16.97 1 19.94 1 23 C0.67 23 0.34 23 0 23 C0 15.41 0 7.82 0 0 Z " fill="#FEFEFE" transform="translate(315,250)"/>
<path d="M0 0 C5.37088856 2.57250504 10.31333674 5.2156224 14 10 C14.8634327 15.14418641 14.60457315 19.84097576 14 25 C13.34 24.34 12.68 23.68 12 23 C11.67 23.66 11.34 24.32 11 25 C10.01 25 9.02 25 8 25 C7.67 21.7 7.34 18.4 7 15 C6.67 15.99 6.34 16.98 6 18 C5.01 18 4.02 18 3 18 C3 15.66666667 3 13.33333333 3 11 C2.52710378 9.49123588 2.02319294 7.99206875 1.5 6.5 C0 2.22222222 0 2.22222222 0 0 Z " fill="#585858" transform="translate(83,95)"/>
<path d="M0 0 C0.66 0.33 1.32 0.66 2 1 C1.67 8.92 1.34 16.84 1 25 C-1.64 25 -4.28 25 -7 25 C-7.0270203 22.24993392 -7.04684883 19.50013454 -7.0625 16.75 C-7.07087891 15.97269531 -7.07925781 15.19539062 -7.08789062 14.39453125 C-7.09111328 13.64042969 -7.09433594 12.88632813 -7.09765625 12.109375 C-7.10289307 11.41811523 -7.10812988 10.72685547 -7.11352539 10.01464844 C-6.99437971 7.90026102 -6.57618237 6.03358485 -6 4 C-4.02 3.67 -2.04 3.34 0 3 C0 2.01 0 1.02 0 0 Z " fill="#EEEEEE" transform="translate(67,239)"/>
<path d="M0 0 C0.33 0 0.66 0 1 0 C1.33 3.3 1.66 6.6 2 10 C2.33 10 2.66 10 3 10 C3 27.49 3 44.98 3 63 C2.01 63 1.02 63 0 63 C0 42.21 0 21.42 0 0 Z " fill="#F6F6F6" transform="translate(188,120)"/>
<path d="M0 0 C0.33 0 0.66 0 1 0 C1 10.23 1 20.46 1 31 C-2.3 30.67 -5.6 30.34 -9 30 C-8.67 28.68 -8.34 27.36 -8 26 C-6.02 26 -4.04 26 -2 26 C-2 24.68 -2 23.36 -2 22 C-1.67 21.67 -1.34 21.34 -1 21 C-2.11375 21.061875 -3.2275 21.12375 -4.375 21.1875 C-5.57125 21.125625 -6.7675 21.06375 -8 21 C-8.66 20.01 -9.32 19.02 -10 18 C-13.08365871 17.7497843 -13.08365871 17.7497843 -16 18 C-16 16.35 -16 14.7 -16 13 C-14.33388095 12.957279 -12.66617115 12.95936168 -11 13 C-10.67 13.33 -10.34 13.66 -10 14 C-9.67 13.34 -9.34 12.68 -9 12 C-8.34 12 -7.68 12 -7 12 C-7 13.32 -7 14.64 -7 16 C-4.69 16.33 -2.38 16.66 0 17 C-0.99 16.34 -1.98 15.68 -3 15 C-2.67 14.01 -2.34 13.02 -2 12 C-1.34 11.67 -0.68 11.34 0 11 C-0.99 11 -1.98 11 -3 11 C-3 10.01 -3 9.02 -3 8 C-2.01 8 -1.02 8 0 8 C0 7.34 0 6.68 0 6 C-0.99 6 -1.98 6 -3 6 C-3 5.01 -3 4.02 -3 3 C-2.01 3 -1.02 3 0 3 C0 2.01 0 1.02 0 0 Z " fill="#989898" transform="translate(345,171)"/>
<path d="M0 0 C0.33 0 0.66 0 1 0 C1.01030746 0.59468582 1.02061493 1.18937164 1.03123474 1.80207825 C1.13927885 7.98250369 1.25387866 14.16278272 1.37231445 20.34301758 C1.41566999 22.65060365 1.4573446 24.95822194 1.49731445 27.26586914 C1.55500183 30.57968867 1.61870092 33.89334597 1.68359375 37.20703125 C1.70030624 38.2414888 1.71701874 39.27594635 1.73423767 40.3417511 C1.75418289 41.3025206 1.77412811 42.2632901 1.79467773 43.25317383 C1.81022202 44.09922684 1.8257663 44.94527985 1.84178162 45.81697083 C1.92274103 48.17959487 1.92274103 48.17959487 3 51 C3.66 51 4.32 51 5 51 C5.125 56.75 5.125 56.75 4 59 C5.32 59 6.64 59 8 59 C8 62.3 8 65.6 8 69 C5.69 69 3.38 69 1 69 C-0.14924899 54.31371224 -0.11596689 39.66107127 -0.0625 24.9375 C-0.05747229 22.50976655 -0.05291165 20.08203209 -0.04882812 17.65429688 C-0.03792937 11.76950872 -0.02129308 5.88475925 0 0 Z " fill="#F4F4F4" transform="translate(40,219)"/>
<path d="M0 0 C4.62 0 9.24 0 14 0 C13.01 1.485 13.01 1.485 12 3 C11.34 3 10.68 3 10 3 C10 5.97 10 8.94 10 12 C9.236875 12.268125 8.47375 12.53625 7.6875 12.8125 C5.09503074 13.95800967 3.91184456 14.99711522 2 17 C1.34 17 0.68 17 0 17 C0 11.39 0 5.78 0 0 Z " fill="#EFEFEF" transform="translate(240,96)"/>
<path d="M0 0 C4.29 0 8.58 0 13 0 C13 5.94 13 11.88 13 18 C11.02 18 9.04 18 7 18 C7 15.69 7 13.38 7 11 C5.35 11 3.7 11 2 11 C1.67 8.36 1.34 5.72 1 3 C1.66 3 2.32 3 3 3 C3 2.34 3 1.68 3 1 C2.01 0.67 1.02 0.34 0 0 Z " fill="#EAEAEA" transform="translate(225,168)"/>
<path d="M0 0 C2.31 0 4.62 0 7 0 C7 2.97 7 5.94 7 9 C8.32 9 9.64 9 11 9 C11 11.97 11 14.94 11 18 C8.69 18 6.38 18 4 18 C4 16.35 4 14.7 4 13 C2.68 13 1.36 13 0 13 C0 8.71 0 4.42 0 0 Z M7 11 C8 13 8 13 8 13 Z " fill="#B0B0B0" transform="translate(55,177)"/>
<path d="M0 0 C0 5.61 0 11.22 0 17 C-1.65 17.33 -3.3 17.66 -5 18 C-5 15.36 -5 12.72 -5 10 C-4.01 9.67 -3.02 9.34 -2 9 C-5.96 9 -9.92 9 -14 9 C-14 7.68 -14 6.36 -14 5 C-13.01 4.67 -12.02 4.34 -11 4 C-10.67 3.01 -10.34 2.02 -10 1 C-6.46315341 0.19157792 -3.72159473 0 0 0 Z " fill="#959595" transform="translate(69,167)"/>
<path d="M0 0 C2.33294775 -0.04241723 4.66702567 -0.04092937 7 0 C8 1 8 1 8.09765625 3.72265625 C8.08605469 4.82480469 8.07445312 5.92695313 8.0625 7.0625 C8.05347656 8.16722656 8.04445313 9.27195313 8.03515625 10.41015625 C8.02355469 11.26480469 8.01195312 12.11945313 8 13 C6.02 13 4.04 13 2 13 C2 11.68 2 10.36 2 9 C1.01 9.495 1.01 9.495 0 10 C-0.33 10.99 -0.66 11.98 -1 13 C-1.66 13 -2.32 13 -3 13 C-3 9.7 -3 6.4 -3 3 C-2.34 3 -1.68 3 -1 3 C-0.67 2.01 -0.34 1.02 0 0 Z " fill="#616161" transform="translate(303,179)"/>
<path d="M0 0 C3.3 0 6.6 0 10 0 C10 2.97 10 5.94 10 9 C6 10 6 10 4 9 C4 11.31 4 13.62 4 16 C2.68 16 1.36 16 0 16 C0 10.72 0 5.44 0 0 Z " fill="#EDEDED" transform="translate(69,168)"/>
<path d="M0 0 C3.63 0 7.26 0 11 0 C11 0.99 11 1.98 11 3 C11.99 3.33 12.98 3.66 14 4 C13.01 4.66 12.02 5.32 11 6 C9.80767387 8.05003955 9.80767387 8.05003955 9 10 C7.35 9.67 5.7 9.34 4 9 C3.71125 9.804375 3.4225 10.60875 3.125 11.4375 C2 14 2 14 0 15 C0 10.05 0 5.1 0 0 Z " fill="#181818" transform="translate(14,178)"/>
<path d="M0 0 C0.99 0 1.98 0 3 0 C3 1.65 3 3.3 3 5 C3.99 5 4.98 5 6 5 C6 3.35 6 1.7 6 0 C6.99 0 7.98 0 9 0 C9 1.65 9 3.3 9 5 C10.32 5 11.64 5 13 5 C13 3.35 13 1.7 13 0 C13.99 0 14.98 0 16 0 C16 1.32 16 2.64 16 4 C17.32 4.33 18.64 4.66 20 5 C20 3.35 20 1.7 20 0 C20.99 0 21.98 0 23 0 C23.33 1.65 23.66 3.3 24 5 C26.97 5.495 26.97 5.495 30 6 C30 6.33 30 6.66 30 7 C26.31251691 7.02925502 22.62506408 7.04688418 18.9375 7.0625 C17.89916016 7.07087891 16.86082031 7.07925781 15.79101562 7.08789062 C10.41276931 7.10496442 5.29666789 6.95415152 0 6 C0 4.02 0 2.04 0 0 Z " fill="#A2A2A2" transform="translate(162,197)"/>
<path d="M0 0 C1.32 0 2.64 0 4 0 C4 3.96 4 7.92 4 12 C3.01 12.495 3.01 12.495 2 13 C2 12.34 2 11.68 2 11 C-1.96 11 -5.92 11 -10 11 C-10 10.01 -10 9.02 -10 8 C-10.66 7.67 -11.32 7.34 -12 7 C-9.47524538 5.73762269 -7.68799534 5.90143596 -4.875 5.9375 C-3.96492187 5.94652344 -3.05484375 5.95554687 -2.1171875 5.96484375 C-1.41851562 5.97644531 -0.71984375 5.98804688 0 6 C0 4.02 0 2.04 0 0 Z " fill="#FDFDFD" transform="translate(250,277)"/>
<path d="M0 0 C1.32 0 2.64 0 4 0 C4 7.92 4 15.84 4 24 C2.68 24 1.36 24 0 24 C0 16.08 0 8.16 0 0 Z " fill="#ECECEC" transform="translate(284,264)"/>
<path d="M0 0 C4.95 0 9.9 0 15 0 C15 2.64 15 5.28 15 8 C14.67 8 14.34 8 14 8 C14 6.35 14 4.7 14 3 C12.35 3 10.7 3 9 3 C9 4.65 9 6.3 9 8 C10.32 8.33 11.64 8.66 13 9 C11.68 9.33 10.36 9.66 9 10 C9 11.98 9 13.96 9 16 C9.66 16.33 10.32 16.66 11 17 C10.34 17 9.68 17 9 17 C9 18.65 9 20.3 9 22 C8.67 22 8.34 22 8 22 C8 20.35 8 18.7 8 17 C7.34 16.67 6.68 16.34 6 16 C6.66 16 7.32 16 8 16 C8 14.02 8 12.04 8 10 C6.68 9.67 5.36 9.34 4 9 C5.32 8.67 6.64 8.34 8 8 C8 6.35 8 4.7 8 3 C6.02 3 4.04 3 2 3 C1.67 3.66 1.34 4.32 1 5 C0.67 3.35 0.34 1.7 0 0 Z " fill="#0C0C0C" transform="translate(279,166)"/>
<path d="M0 0 C0 4.29 0 8.58 0 13 C1.98 13 3.96 13 6 13 C6 16.3 6 19.6 6 23 C6.99 23 7.98 23 9 23 C9 23.66 9 24.32 9 25 C9.66 25 10.32 25 11 25 C11 25.66 11 26.32 11 27 C10.01 26.67 9.02 26.34 8 26 C8 25.34 8 24.68 8 24 C7.360625 23.87625 6.72125 23.7525 6.0625 23.625 C5.0415625 23.315625 5.0415625 23.315625 4 23 C2.64560332 20.29120665 2.93498549 17.99066732 3 15 C1.68 14.67 0.36 14.34 -1 14 C-1.33 11.03 -1.66 8.06 -2 5 C-4.64 5.33 -7.28 5.66 -10 6 C-7.33204832 3.03560925 -4.29201379 0 0 0 Z " fill="#FAFAFA" transform="translate(117,243)"/>
<path d="M0 0 C1.32 0 2.64 0 4 0 C4.28875 0.61875 4.5775 1.2375 4.875 1.875 C5.93720042 4.13325765 5.93720042 4.13325765 8 6 C5.69 5.67 3.38 5.34 1 5 C1 21.17 1 37.34 1 54 C0.67 54 0.34 54 0 54 C0 36.18 0 18.36 0 0 Z " fill="#DADADA" transform="translate(94,242)"/>
<path d="M0 0 C3.63 0 7.26 0 11 0 C11.33 0.99 11.66 1.98 12 3 C11.34 3 10.68 3 10 3 C8.8553125 4.2065625 8.8553125 4.2065625 7.6875 5.4375 C4.92345437 8.07298537 3.71162552 8.68186067 0 9 C0 6.03 0 3.06 0 0 Z " fill="#ECECEC" transform="translate(24,168)"/>
<path d="M0 0 C0.99 0 1.98 0 3 0 C3 7.92 3 15.84 3 24 C2.01 23.67 1.02 23.34 0 23 C0.01160156 22.41992188 0.02320313 21.83984375 0.03515625 21.2421875 C0.07674838 17.64149743 0.05347466 14.3089647 -0.5625 10.75 C-1.02856101 7.82047367 -0.69495522 5.85703811 0 3 C0 2.01 0 1.02 0 0 Z " fill="#EDEDED" transform="translate(213,144)"/>
<path d="M0 0 C2.31 0 4.62 0 7 0 C7 7.92 7 15.84 7 24 C6.01 23.67 5.02 23.34 4 23 C4.06960937 21.12054688 4.06960937 21.12054688 4.140625 19.203125 C4.17814813 17.55210719 4.21454771 15.90106358 4.25 14.25 C4.28351563 13.425 4.31703125 12.6 4.3515625 11.75 C4.49906727 6.71672087 4.49906727 6.71672087 1.984375 2.484375 C1.32953125 1.99453125 0.6746875 1.5046875 0 1 C0 0.67 0 0.34 0 0 Z " fill="#ECECEC" transform="translate(209,96)"/>
<path d="M0 0 C0.33 0 0.66 0 1 0 C1 9.57 1 19.14 1 29 C-0.98 29 -2.96 29 -5 29 C-4.27224365 28.18341919 -4.27224365 28.18341919 -3.52978516 27.3503418 C-1.67006682 24.493095 -1.59206311 22.7814562 -1.5234375 19.39453125 C-1.4925 18.32912109 -1.4615625 17.26371094 -1.4296875 16.16601562 C-1.41164062 15.05935547 -1.39359375 13.95269531 -1.375 12.8125 C-1.32423535 10.61058315 -1.26975688 8.40874766 -1.2109375 6.20703125 C-1.19337402 5.2322583 -1.17581055 4.25748535 -1.15771484 3.25317383 C-1 1 -1 1 0 0 Z " fill="#010101" transform="translate(163,264)"/>
<path d="M0 0 C2.64 0 5.28 0 8 0 C8 2.64 8 5.28 8 8 C5.36 8 2.72 8 0 8 C0 5.36 0 2.72 0 0 Z " fill="#B5B5B5" transform="translate(44,184)"/>
<path d="M0 0 C1.65 0 3.3 0 5 0 C5 4.29 5 8.58 5 13 C3.35 13 1.7 13 0 13 C0 8.71 0 4.42 0 0 Z " fill="#8E8E8E" transform="translate(288,176)"/>
<path d="M0 0 C0.33 0 0.66 0 1 0 C1 5.61 1 11.22 1 17 C-0.65 17.33 -2.3 17.66 -4 18 C-4 15.36 -4 12.72 -4 10 C-3.01 10 -2.02 10 -1 10 C-1.020625 8.72125 -1.04125 7.4425 -1.0625 6.125 C-1.125 2.25 -1.125 2.25 0 0 Z M-1 4 C-1 5.65 -1 7.3 -1 9 C-1.99 9 -2.98 9 -4 9 C-4 7.68 -4 6.36 -4 5 C-2 4 -2 4 -1 4 Z " fill="#636363" transform="translate(68,167)"/>
<path d="M0 0 C2.31 0 4.62 0 7 0 C7 2.64 7 5.28 7 8 C4.69 8 2.38 8 0 8 C0 5.36 0 2.72 0 0 Z " fill="#B5B5B5" transform="translate(260,141)"/>
<path d="M0 0 C1.65 0 3.3 0 5 0 C5 3.63 5 7.26 5 11 C3.35 11.33 1.7 11.66 0 12 C0 8.04 0 4.08 0 0 Z " fill="#9E9E9E" transform="translate(220,183)"/>
<path d="M0 0 C0.99 0 1.98 0 3 0 C3.33 5.28 3.66 10.56 4 16 C2.68 16 1.36 16 0 16 C0 10.72 0 5.44 0 0 Z " fill="#F8F8F8" transform="translate(69,168)"/>
<path d="M0 0 C0.33 0 0.66 0 1 0 C1 4.29 1 8.58 1 13 C-2.3 12.67 -5.6 12.34 -9 12 C-8.67 10.68 -8.34 9.36 -8 8 C-6.02 8 -4.04 8 -2 8 C-2 6.68 -2 5.36 -2 4 C-1.34 4 -0.68 4 0 4 C0 2.68 0 1.36 0 0 Z " fill="#838383" transform="translate(345,189)"/>
<path d="M0 0 C1.65 0 3.3 0 5 0 C5 3.3 5 6.6 5 10 C3.35 10.33 1.7 10.66 0 11 C0 7.37 0 3.74 0 0 Z " fill="#ECECEC" transform="translate(120,168)"/>
<path d="M0 0 C2.31 0.66 4.62 1.32 7 2 C7.33 1.34 7.66 0.68 8 0 C8.33 0.33 8.66 0.66 9 1 C11.33297433 1.04092937 13.66705225 1.04241723 16 1 C15.67 2.32 15.34 3.64 15 5 C14.05125 4.979375 13.1025 4.95875 12.125 4.9375 C9.09333717 4.77448174 9.09333717 4.77448174 7 6 C7 5.34 7 4.68 7 4 C4.69 4.66 2.38 5.32 0 6 C0 5.34 0 4.68 0 4 C-0.66 3.67 -1.32 3.34 -2 3 C-1.34 3 -0.68 3 0 3 C0 2.01 0 1.02 0 0 Z " fill="#101010" transform="translate(320,187)"/>
<path d="M0 0 C1.98 0 3.96 0 6 0 C6 2.64 6 5.28 6 8 C4.02 8 2.04 8 0 8 C0 5.36 0 2.72 0 0 Z " fill="#EFEFEF" transform="translate(261,187)"/>
<path d="M0 0 C1.98 0 3.96 0 6 0 C6 2.64 6 5.28 6 8 C4.02 8 2.04 8 0 8 C0 5.36 0 2.72 0 0 Z " fill="#F4F4F4" transform="translate(252,187)"/>
<path d="M0 0 C1.98 0 3.96 0 6 0 C6 2.64 6 5.28 6 8 C4.02 8 2.04 8 0 8 C0 5.36 0 2.72 0 0 Z " fill="#EFEFEF" transform="translate(243,187)"/>
<path d="M0 0 C1.98 0 3.96 0 6 0 C6 2.64 6 5.28 6 8 C4.02 8 2.04 8 0 8 C0 5.36 0 2.72 0 0 Z " fill="#F1F1F1" transform="translate(252,176)"/>
<path d="M0 0 C1.98 0 3.96 0 6 0 C6 2.64 6 5.28 6 8 C4.02 8 2.04 8 0 8 C0 5.36 0 2.72 0 0 Z " fill="#F0F0F0" transform="translate(261,164)"/>
<path d="M0 0 C1.98 0 3.96 0 6 0 C6 2.64 6 5.28 6 8 C4.02 8 2.04 8 0 8 C0 5.36 0 2.72 0 0 Z " fill="#F4F4F4" transform="translate(243,164)"/>
<path d="M0 0 C1.98 0 3.96 0 6 0 C6 2.64 6 5.28 6 8 C4.02 8 2.04 8 0 8 C0 5.36 0 2.72 0 0 Z " fill="#F9F9F9" transform="translate(252,164)"/>
<path d="M0 0 C1.98 0 3.96 0 6 0 C6 2.64 6 5.28 6 8 C4.02 8 2.04 8 0 8 C0 5.36 0 2.72 0 0 Z " fill="#E5E5E5" transform="translate(243,152)"/>
<path d="M0 0 C1.98 0 3.96 0 6 0 C6 2.64 6 5.28 6 8 C4.02 8 2.04 8 0 8 C0 5.36 0 2.72 0 0 Z " fill="#F3F3F3" transform="translate(252,141)"/>
<path d="M0 0 C1.98 0 3.96 0 6 0 C6 2.64 6 5.28 6 8 C4.02 8 2.04 8 0 8 C0 5.36 0 2.72 0 0 Z " fill="#EFEFEF" transform="translate(243,141)"/>
<path d="M0 0 C1.98 0 3.96 0 6 0 C6 2.64 6 5.28 6 8 C4.02 8 2.04 8 0 8 C0 5.36 0 2.72 0 0 Z " fill="#F0F0F0" transform="translate(261,129)"/>
<path d="M0 0 C1.98 0 3.96 0 6 0 C6 2.64 6 5.28 6 8 C4.02 8 2.04 8 0 8 C0 5.36 0 2.72 0 0 Z " fill="#F6F6F6" transform="translate(252,129)"/>
<path d="M0 0 C1.98 0 3.96 0 6 0 C6 2.64 6 5.28 6 8 C4.02 8 2.04 8 0 8 C0 5.36 0 2.72 0 0 Z " fill="#F3F3F3" transform="translate(243,129)"/>
<path d="M0 0 C1.98 0 3.96 0 6 0 C6 2.64 6 5.28 6 8 C4.02 8 2.04 8 0 8 C0 5.36 0 2.72 0 0 Z " fill="#F0F0F0" transform="translate(261,106)"/>
<path d="M0 0 C1.32 0 2.64 0 4 0 C4 2.97 4 5.94 4 9 C1.69 9 -0.62 9 -3 9 C-3 7.68 -3 6.36 -3 5 C-2.01 4.67 -1.02 4.34 0 4 C0 2.68 0 1.36 0 0 Z " fill="#929292" transform="translate(62,186)"/>
<path d="M0 0 C0 2.64 0 5.28 0 8 C-1.98 8 -3.96 8 -6 8 C-6.1875 5.125 -6.1875 5.125 -6 2 C-3 0 -3 0 0 0 Z " fill="#EEEEEE" transform="translate(267,94)"/>
<path d="M0 0 C2.97 0 5.94 0 9 0 C9.33 1.65 9.66 3.3 10 5 C8.02 5 6.04 5 4 5 C4 3.68 4 2.36 4 1 C3.01 1.495 3.01 1.495 2 2 C1.67 2.99 1.34 3.98 1 5 C0.34 5 -0.32 5 -1 5 C-0.67 3.35 -0.34 1.7 0 0 Z " fill="#828282" transform="translate(301,187)"/>
<path d="M0 0 C1.98 0 3.96 0 6 0 C6 2.31 6 4.62 6 7 C4.02 7 2.04 7 0 7 C0 4.69 0 2.38 0 0 Z " fill="#F8F8F8" transform="translate(261,176)"/>
<path d="M0 0 C1.98 0 3.96 0 6 0 C6 2.31 6 4.62 6 7 C4.02 7 2.04 7 0 7 C0 4.69 0 2.38 0 0 Z " fill="#FAFAFA" transform="translate(243,176)"/>
<path d="M0 0 C1.98 0 3.96 0 6 0 C6 2.31 6 4.62 6 7 C4.02 7 2.04 7 0 7 C0 4.69 0 2.38 0 0 Z " fill="#F5F5F5" transform="translate(261,153)"/>
<path d="M0 0 C1.98 0 3.96 0 6 0 C6 2.31 6 4.62 6 7 C4.02 7 2.04 7 0 7 C0 4.69 0 2.38 0 0 Z " fill="#FAFAFA" transform="translate(252,153)"/>
<path d="M0 0 C1.98 0 3.96 0 6 0 C6 2.31 6 4.62 6 7 C4.02 7 2.04 7 0 7 C0 4.69 0 2.38 0 0 Z " fill="#F4F4F4" transform="translate(261,118)"/>
<path d="M0 0 C1.98 0 3.96 0 6 0 C6 2.31 6 4.62 6 7 C4.02 7 2.04 7 0 7 C0 4.69 0 2.38 0 0 Z " fill="#FCFCFC" transform="translate(252,118)"/>
<path d="M0 0 C0.33 0 0.66 0 1 0 C1 1.98 1 3.96 1 6 C-3.29 5.67 -7.58 5.34 -12 5 C-11.67 4.01 -11.34 3.02 -11 2 C-7.37 2 -3.74 2 0 2 C0 1.34 0 0.68 0 0 Z " fill="#010101" transform="translate(155,134)"/>
<path d="M0 0 C1.65 0 3.3 0 5 0 C5 2.64 5 5.28 5 8 C3.35 8 1.7 8 0 8 C0 5.36 0 2.72 0 0 Z " fill="#A3A3A3" transform="translate(336,174)"/>
<path d="M0 0 C4.29 0 8.58 0 13 0 C13 0.99 13 1.98 13 3 C8.71 3 4.42 3 0 3 C0 2.01 0 1.02 0 0 Z " fill="#D8D8D8" transform="translate(142,171)"/>
<path d="M0 0 C4.29 0 8.58 0 13 0 C13 0.99 13 1.98 13 3 C8.71 3 4.42 3 0 3 C0 2.01 0 1.02 0 0 Z " fill="#E1E1E1" transform="translate(142,164)"/>
<path d="M0 0 C4.29 0 8.58 0 13 0 C13 0.99 13 1.98 13 3 C8.71 3 4.42 3 0 3 C0 2.01 0 1.02 0 0 Z " fill="#DBDBDB" transform="translate(142,158)"/>
<path d="M0 0 C1.32 0 2.64 0 4 0 C4 2.31 4 4.62 4 7 C2.02 7 0.04 7 -2 7 C-2.125 4.625 -2.125 4.625 -2 2 C-1.34 1.34 -0.68 0.68 0 0 Z " fill="#F9F9F9" transform="translate(245,118)"/>
<path d="M0 0 C1.98 0 3.96 0 6 0 C6 1.32 6 2.64 6 4 C5.01 4 4.02 4 3 4 C3 5.98 3 7.96 3 10 C2.01 10 1.02 10 0 10 C0 6.7 0 3.4 0 0 Z " fill="#ACACAC" transform="translate(147,94)"/>
<path d="M0 0 C4.29 0 8.58 0 13 0 C12.67 0.99 12.34 1.98 12 3 C8.04 3 4.08 3 0 3 C0 2.01 0 1.02 0 0 Z " fill="#D6D6D6" transform="translate(142,177)"/>
<path d="M0 0 C4.29 0 8.58 0 13 0 C12.67 0.99 12.34 1.98 12 3 C8.04 3 4.08 3 0 3 C0 2.01 0 1.02 0 0 Z " fill="#D7D7D7" transform="translate(142,127)"/>
<path d="M0 0 C0.99 0 1.98 0 3 0 C3 1.65 3 3.3 3 5 C3.99 5 4.98 5 6 5 C6 3.35 6 1.7 6 0 C6.99 0 7.98 0 9 0 C8.67 1.98 8.34 3.96 8 6 C5.36 6 2.72 6 0 6 C0 4.02 0 2.04 0 0 Z " fill="#BBBBBB" transform="translate(162,197)"/>
<path d="M0 0 C0.33 0 0.66 0 1 0 C1 1.65 1 3.3 1 5 C1.66 5 2.32 5 3 5 C3 6.65 3 8.3 3 10 C0.69 10 -1.62 10 -4 10 C-4 8.35 -4 6.7 -4 5 C-3.01 4.67 -2.02 4.34 -1 4 C-0.26676204 1.98491642 -0.26676204 1.98491642 0 0 Z " fill="#A3A3A3" transform="translate(151,100)"/>
<path d="M0 0 C3.96 0 7.92 0 12 0 C12 0.99 12 1.98 12 3 C8.04 3 4.08 3 0 3 C0 2.01 0 1.02 0 0 Z " fill="#F7F7F7" transform="translate(142,183)"/>
<path d="M0 0 C3.96 0 7.92 0 12 0 C12 0.99 12 1.98 12 3 C8.04 3 4.08 3 0 3 C0 2.01 0 1.02 0 0 Z " fill="#F5F5F5" transform="translate(142,152)"/>
<path d="M0 0 C3.96 0 7.92 0 12 0 C12 0.99 12 1.98 12 3 C8.04 3 4.08 3 0 3 C0 2.01 0 1.02 0 0 Z " fill="#FBFBFB" transform="translate(142,139)"/>
<path d="M0 0 C3.96 0 7.92 0 12 0 C12 0.99 12 1.98 12 3 C8.04 3 4.08 3 0 3 C0 2.01 0 1.02 0 0 Z " fill="#FAFAFA" transform="translate(142,133)"/>
<path d="M0 0 C3.96 0 7.92 0 12 0 C12 0.99 12 1.98 12 3 C8.04 3 4.08 3 0 3 C0 2.01 0 1.02 0 0 Z " fill="#F6F6F6" transform="translate(142,120)"/>
<path d="M0 0 C1.65 0 3.3 0 5 0 C5.33 2.97 5.66 5.94 6 9 C5.67 7.68 5.34 6.36 5 5 C4.34 5 3.68 5 3 5 C2.67 6.32 2.34 7.64 2 9 C2 7.68 2 6.36 2 5 C1.34 5 0.68 5 0 5 C0 3.35 0 1.7 0 0 Z " fill="#6C6C6C" transform="translate(44,193)"/>
<path d="M0 0 C0.33 0.66 0.66 1.32 1 2 C3.02463255 2.65213292 3.02463255 2.65213292 5 3 C3.68 3.33 2.36 3.66 1 4 C1 5.98 1 7.96 1 10 C1.66 10.33 2.32 10.66 3 11 C2.34 11 1.68 11 1 11 C1 12.65 1 14.3 1 16 C0.67 16 0.34 16 0 16 C0 14.35 0 12.7 0 11 C-0.66 10.67 -1.32 10.34 -2 10 C-1.34 10 -0.68 10 0 10 C0 8.02 0 6.04 0 4 C-1.32 3.67 -2.64 3.34 -4 3 C-2.68 2.67 -1.36 2.34 0 2 C0 1.34 0 0.68 0 0 Z " fill="#020202" transform="translate(287,172)"/>
<path d="M0 0 C1.32 0.66 2.64 1.32 4 2 C3.67 2.33 3.34 2.66 3 3 C2.76807135 4.51469448 2.58784762 6.03754562 2.4375 7.5625 C2.35371094 8.38878906 2.26992187 9.21507812 2.18359375 10.06640625 C2.12300781 10.70449219 2.06242188 11.34257812 2 12 C1.01 12.33 0.02 12.66 -1 13 C-0.67 8.71 -0.34 4.42 0 0 Z " fill="#CDCDCD" transform="translate(226,275)"/>
<path d="M0 0 C0.33 0 0.66 0 1 0 C1 2.97 1 5.94 1 9 C0.67 8.01 0.34 7.02 0 6 C-1.32 6 -2.64 6 -4 6 C-4.33 7.32 -4.66 8.64 -5 10 C-5 8.68 -5 7.36 -5 6 C-5.99 6 -6.98 6 -8 6 C-8.33 6.66 -8.66 7.32 -9 8 C-9.33 7.01 -9.66 6.02 -10 5 C-9.34 4.01 -8.68 3.02 -8 2 C-8 2.99 -8 3.98 -8 5 C-7.01 5 -6.02 5 -5 5 C-4.67 4.01 -4.34 3.02 -4 2 C-4 2.99 -4 3.98 -4 5 C-2.68 5 -1.36 5 0 5 C0 3.35 0 1.7 0 0 Z " fill="#000000" transform="translate(67,171)"/>
<path d="M0 0 C0.99 0 1.98 0 3 0 C3 0.99 3 1.98 3 3 C3.66 3 4.32 3 5 3 C5 3.66 5 4.32 5 5 C4.34 5 3.68 5 3 5 C3 5.99 3 6.98 3 8 C2.01 8 1.02 8 0 8 C0 5.36 0 2.72 0 0 Z " fill="#7F7F7F" transform="translate(44,184)"/>
<path d="M0 0 C0.99 0.66 1.98 1.32 3 2 C1.68 2.99 0.36 3.98 -1 5 C-1.99 4.34 -2.98 3.68 -4 3 C-4.66 3 -5.32 3 -6 3 C-6 3.66 -6 4.32 -6 5 C-6.66 5 -7.32 5 -8 5 C-8.33 3.68 -8.66 2.36 -9 1 C-7.700625 1.020625 -6.40125 1.04125 -5.0625 1.0625 C-3.70834367 1.08399454 -2.35243917 1.07148199 -1 1 C-0.67 0.67 -0.34 0.34 0 0 Z " fill="#040404" transform="translate(219,187)"/>
<path d="M0 0 C2.875 -0.125 2.875 -0.125 6 0 C6.66 0.66 7.32 1.32 8 2 C8.66 1.34 9.32 0.68 10 0 C10 1.98 10 3.96 10 6 C9.484375 5.71125 8.96875 5.4225 8.4375 5.125 C5.37643275 3.71219973 2.25055082 2.8751483 -1 2 C-0.67 1.34 -0.34 0.68 0 0 Z " fill="#F8F8F8" transform="translate(129,131)"/>
<path d="M0 0 C2.97 0 5.94 0 9 0 C9 0.99 9 1.98 9 3 C6.03 3 3.06 3 0 3 C0 2.01 0 1.02 0 0 Z " fill="#C7C7C7" transform="translate(129,190)"/>
<path d="M0 0 C1.65 0 3.3 0 5 0 C4.125 3.875 4.125 3.875 3 5 C3.66 5.66 4.32 6.32 5 7 C3.35 7 1.7 7 0 7 C0 4.69 0 2.38 0 0 Z " fill="#FCFCFC" transform="translate(261,141)"/>
<path d="M0 0 C1.65 0 3.3 0 5 0 C5 1.65 5 3.3 5 5 C3.35 5 1.7 5 0 5 C0 3.35 0 1.7 0 0 Z " fill="#BCBCBC" transform="translate(111,192)"/>
<path d="M0 0 C1.65 0 3.3 0 5 0 C5 1.65 5 3.3 5 5 C3.35 5 1.7 5 0 5 C0 3.35 0 1.7 0 0 Z " fill="#B5B5B5" transform="translate(273,192)"/>
<path d="M0 0 C1.65 0 3.3 0 5 0 C5 1.65 5 3.3 5 5 C3.35 5 1.7 5 0 5 C0 3.35 0 1.7 0 0 Z " fill="#BBBBBB" transform="translate(103,192)"/>
<path d="M0 0 C1.65 0 3.3 0 5 0 C5 1.65 5 3.3 5 5 C3.35 5 1.7 5 0 5 C0 3.35 0 1.7 0 0 Z " fill="#B1B1B1" transform="translate(329,191)"/>
<path d="M0 0 C1.65 0 3.3 0 5 0 C5 1.65 5 3.3 5 5 C3.35 5 1.7 5 0 5 C0 3.35 0 1.7 0 0 Z " fill="#B3B3B3" transform="translate(322,191)"/>
<path d="M0 0 C1.65 0 3.3 0 5 0 C5 1.65 5 3.3 5 5 C3.35 5 1.7 5 0 5 C0 3.35 0 1.7 0 0 Z " fill="#B6B6B6" transform="translate(315,191)"/>
<path d="M0 0 C1.65 0 3.3 0 5 0 C5 1.65 5 3.3 5 5 C3.35 5 1.7 5 0 5 C0 3.35 0 1.7 0 0 Z " fill="#B9B9B9" transform="translate(103,186)"/>
<path d="M0 0 C1.65 0 3.3 0 5 0 C5 1.65 5 3.3 5 5 C3.35 5 1.7 5 0 5 C0 3.35 0 1.7 0 0 Z " fill="#B6B6B6" transform="translate(322,184)"/>
<path d="M0 0 C1.65 0 3.3 0 5 0 C5 1.65 5 3.3 5 5 C3.35 5 1.7 5 0 5 C0 3.35 0 1.7 0 0 Z " fill="#B9B9B9" transform="translate(315,184)"/>
<path d="M0 0 C1.65 0 3.3 0 5 0 C5 1.65 5 3.3 5 5 C3.35 5 1.7 5 0 5 C0 3.35 0 1.7 0 0 Z " fill="#AFAFAF" transform="translate(273,184)"/>
<path d="M0 0 C1.65 0 3.3 0 5 0 C5 1.65 5 3.3 5 5 C3.35 5 1.7 5 0 5 C0 3.35 0 1.7 0 0 Z " fill="#A2A2A2" transform="translate(282,184)"/>
<path d="M0 0 C1.65 0 3.3 0 5 0 C5 1.65 5 3.3 5 5 C3.35 5 1.7 5 0 5 C0 3.35 0 1.7 0 0 Z " fill="#BBBBBB" transform="translate(17,181)"/>
<path d="M0 0 C0.99 0 1.98 0 3 0 C3.98120464 3.05263664 3.98120464 4.94736336 3 8 C2.01 8 1.02 8 0 8 C0 5.36 0 2.72 0 0 Z " fill="#A6A6A6" transform="translate(64,177)"/>
<path d="M0 0 C1.65 0 3.3 0 5 0 C5 1.65 5 3.3 5 5 C3.35 5 1.7 5 0 5 C0 3.35 0 1.7 0 0 Z " fill="#ACACAC" transform="translate(273,177)"/>
<path d="M0 0 C1.65 0 3.3 0 5 0 C5 1.65 5 3.3 5 5 C3.35 5 1.7 5 0 5 C0 3.35 0 1.7 0 0 Z " fill="#B2B2B2" transform="translate(220,175)"/>
<path d="M0 0 C1.65 0 3.3 0 5 0 C5 1.65 5 3.3 5 5 C3.35 5 1.7 5 0 5 C0 3.35 0 1.7 0 0 Z " fill="#C0C0C0" transform="translate(288,169)"/>
<path d="M0 0 C1.65 0 3.3 0 5 0 C5 1.65 5 3.3 5 5 C3.35 5 1.7 5 0 5 C0 3.35 0 1.7 0 0 Z " fill="#AFAFAF" transform="translate(282,169)"/>
<path d="M0 0 C2.64 0 5.28 0 8 0 C8 0.99 8 1.98 8 3 C5.36 3 2.72 3 0 3 C0 2.01 0 1.02 0 0 Z " fill="#CECECE" transform="translate(129,146)"/>
<path d="M0 0 C0 1.32 0 2.64 0 4 C-0.66 4 -1.32 4 -2 4 C-2.33 4.99 -2.66 5.98 -3 7 C-3 6.01 -3 5.02 -3 4 C-4.32 3.67 -5.64 3.34 -7 3 C-3.375 0 -3.375 0 0 0 Z " fill="#101010" transform="translate(153,90)"/>
<path d="M0 0 C1.65 0 3.3 0 5 0 C5 1.65 5 3.3 5 5 C3.68 5 2.36 5 1 5 C0.67 3.35 0.34 1.7 0 0 Z " fill="#B4B4B4" transform="translate(119,191)"/>
<path d="M0 0 C1.65 0 3.3 0 5 0 C5 1.65 5 3.3 5 5 C3.35 5 1.7 5 0 5 C0 3.35 0 1.7 0 0 Z " fill="#C0C0C0" transform="translate(329,184)"/>
<path d="M0 0 C1.65 0 3.3 0 5 0 C5 1.65 5 3.3 5 5 C3.35 5 1.7 5 0 5 C0 3.35 0 1.7 0 0 Z " fill="#C7C7C7" transform="translate(288,176)"/>
<path d="M0 0 C1.65 0 3.3 0 5 0 C4.67 1.65 4.34 3.3 4 5 C2.68 5 1.36 5 0 5 C0 3.35 0 1.7 0 0 Z " fill="#B1B1B1" transform="translate(282,176)"/>
<path d="M0 0 C0.33 0 0.66 0 1 0 C1.33 2.31 1.66 4.62 2 7 C-1.96 7 -5.92 7 -10 7 C-10 6.67 -10 6.34 -10 6 C-6.7 5.67 -3.4 5.34 0 5 C0 3.35 0 1.7 0 0 Z " fill="#FBFBFB" transform="translate(51,163)"/>
<path d="M0 0 C0.99 0.495 0.99 0.495 2 1 C2.625 3.5625 2.625 3.5625 3 6 C4.32 6.33 5.64 6.66 7 7 C6.34 7 5.68 7 5 7 C5 7.66 5 8.32 5 9 C4.01 9.33 3.02 9.66 2 10 C1.34 6.7 0.68 3.4 0 0 Z " fill="#F6F6F6" transform="translate(171,35)"/>
<path d="M0 0 C2.31 0 4.62 0 7 0 C7 0.99 7 1.98 7 3 C4.69 3 2.38 3 0 3 C0 2.01 0 1.02 0 0 Z " fill="#ECECEC" transform="translate(130,183)"/>
<path d="M0 0 C1.32 0 2.64 0 4 0 C4.33 0.99 4.66 1.98 5 3 C3.02 3.66 1.04 4.32 -1 5 C-1.33 4.01 -1.66 3.02 -2 2 C-1.34 2 -0.68 2 0 2 C0 1.34 0 0.68 0 0 Z " fill="#101010" transform="translate(226,182)"/>
<path d="M0 0 C2.31 0 4.62 0 7 0 C7 0.99 7 1.98 7 3 C4.69 3 2.38 3 0 3 C0 2.01 0 1.02 0 0 Z " fill="#E6E6E6" transform="translate(130,177)"/>
<path d="M0 0 C2.31 0 4.62 0 7 0 C7 0.99 7 1.98 7 3 C4.69 3 2.38 3 0 3 C0 2.01 0 1.02 0 0 Z " fill="#F6F6F6" transform="translate(130,171)"/>
<path d="M0 0 C2.31 0 4.62 0 7 0 C7 0.99 7 1.98 7 3 C4.69 3 2.38 3 0 3 C0 2.01 0 1.02 0 0 Z " fill="#FDFDFD" transform="translate(130,158)"/>
<path d="M0 0 C2.31 0 4.62 0 7 0 C7 0.99 7 1.98 7 3 C4.69 3 2.38 3 0 3 C0 2.01 0 1.02 0 0 Z " fill="#FDFDFD" transform="translate(130,152)"/>
<path d="M0 0 C2.31 0 4.62 0 7 0 C7 0.99 7 1.98 7 3 C4.69 3 2.38 3 0 3 C0 2.01 0 1.02 0 0 Z " fill="#F5F5F5" transform="translate(130,139)"/>
<path d="M0 0 C1.32 0 2.64 0 4 0 C4 1.65 4 3.3 4 5 C2.68 5 1.36 5 0 5 C0 3.35 0 1.7 0 0 Z " fill="#AAAAAA" transform="translate(174,189)"/>
<path d="M0 0 C1.32 0 2.64 0 4 0 C4 1.65 4 3.3 4 5 C2.68 5 1.36 5 0 5 C0 3.35 0 1.7 0 0 Z " fill="#B8B8B8" transform="translate(36,178)"/>
<path d="M0 0 C1.32 0 2.64 0 4 0 C4 1.65 4 3.3 4 5 C2.68 5 1.36 5 0 5 C0 3.35 0 1.7 0 0 Z " fill="#AAAAAA" transform="translate(174,132)"/>
<path d="M0 0 C1.32 0 2.64 0 4 0 C4 1.65 4 3.3 4 5 C2.68 5 1.36 5 0 5 C0 3.35 0 1.7 0 0 Z " fill="#A9A9A9" transform="translate(174,118)"/>
<path d="M0 0 C0.66 0.33 1.32 0.66 2 1 C2 2.32 2 3.64 2 5 C2.66 5.33 3.32 5.66 4 6 C3.34 6 2.68 6 2 6 C2 6.99 2 7.98 2 9 C1.34 9 0.68 9 0 9 C-1.10844919 5.67465243 -0.84454356 3.37817425 0 0 Z " fill="#010101" transform="translate(89,109)"/>
<path d="M0 0 C1.32 0 2.64 0 4 0 C4 1.65 4 3.3 4 5 C2.68 5 1.36 5 0 5 C0 3.35 0 1.7 0 0 Z " fill="#A9A9A9" transform="translate(174,82)"/>
<path d="M0 0 C1.32 0 2.64 0 4 0 C4 1.65 4 3.3 4 5 C2.68 5 1.36 5 0 5 C0 3.35 0 1.7 0 0 Z " fill="#ADADAD" transform="translate(174,54)"/>
<path d="M0 0 C1.98 0 3.96 0 6 0 C6 0.99 6 1.98 6 3 C4.02 3 2.04 3 0 3 C0 2.01 0 1.02 0 0 Z " fill="#ACACAC" transform="translate(336,193)"/>
<path d="M0 0 C0.66 0 1.32 0 2 0 C1.67 1.65 1.34 3.3 1 5 C0.01 5.33 -0.98 5.66 -2 6 C-2 5.34 -2 4.68 -2 4 C-2.99 3.67 -3.98 3.34 -5 3 C-4.360625 2.87625 -3.72125 2.7525 -3.0625 2.625 C-2.0415625 2.315625 -2.0415625 2.315625 -1 2 C-0.67 1.34 -0.34 0.68 0 0 Z " fill="#737373" transform="translate(336,183)"/>
<path d="M0 0 C1.98 0 3.96 0 6 0 C6 0.99 6 1.98 6 3 C4.02 3 2.04 3 0 3 C0 2.01 0 1.02 0 0 Z " fill="#B2B2B2" transform="translate(199,172)"/>
<path d="M0 0 C1.98 0 3.96 0 6 0 C6 0.99 6 1.98 6 3 C4.02 3 2.04 3 0 3 C0 2.01 0 1.02 0 0 Z " fill="#ABABAB" transform="translate(199,117)"/>
<path d="M0 0 C1.98 0.495 1.98 0.495 4 1 C4 1.99 4 2.98 4 4 C2.35 4 0.7 4 -1 4 C-0.67 2.68 -0.34 1.36 0 0 Z " fill="#A8A8A8" transform="translate(337,197)"/>
<path d="M0 0 C1.65 0 3.3 0 5 0 C4.67 1.32 4.34 2.64 4 4 C2.68 3.67 1.36 3.34 0 3 C0 2.01 0 1.02 0 0 Z " fill="#B3B3B3" transform="translate(336,188)"/>
<path d="M0 0 C0.6875 1.8125 0.6875 1.8125 1 4 C-0.4375 5.75 -0.4375 5.75 -2 7 C-2.66 6.67 -3.32 6.34 -4 6 C-4 5.01 -4 4.02 -4 3 C-2.68 3 -1.36 3 0 3 C0 2.01 0 1.02 0 0 Z " fill="#919191" transform="translate(345,185)"/>
<path d="M0 0 C1.32 0.33 2.64 0.66 4 1 C4 2.32 4 3.64 4 5 C2.68 5 1.36 5 0 5 C0 3.35 0 1.7 0 0 Z " fill="#C5C5C5" transform="translate(213,182)"/>
</svg>
